# Blender v2.79 (sub 0) OBJ File: ''
# www.blender.org
v 0.232032 -0.769138 -0.508787
v 0.436653 -1.168831 -0.075284
v 0.141254 -1.198990 -0.354663
v -0.199774 -0.604226 -0.557528
v -0.508999 0.087460 -0.730843
v -0.272919 0.228299 -0.803484
v -0.560853 -0.417576 -0.431066
v -0.823137 -0.090556 0.079568
v -0.847337 0.203230 -0.127956
v -0.579955 -0.737696 0.096448
v -0.151652 -1.145406 0.453731
v -0.181815 -0.658419 0.600384
v 0.017595 -0.671114 0.542954
v 0.085626 -1.114453 0.411531
v 0.455112 -0.794612 0.205572
v 0.297532 -1.178754 0.314436
v 0.382994 -1.143457 0.169204
v -0.137295 0.404033 0.656703
v -0.212059 0.642453 0.485917
v -0.319432 0.428851 0.594656
v 0.617861 -0.021726 0.115589
v 0.525376 0.389509 0.306712
v 0.459185 0.044158 0.377575
v 0.734834 0.017641 -0.176576
v 0.516210 0.444505 -0.374636
v 0.745805 0.392443 -0.101780
v -0.248255 0.618107 -0.491994
v -0.010810 0.662653 -0.490481
v -0.764107 0.321203 0.257832
v -0.752580 0.449926 0.171942
v 0.009131 0.608745 0.501481
v -0.051332 1.037554 0.229516
v 0.196117 0.980956 0.103171
v 0.157309 0.989587 0.161067
v 0.231636 0.973400 0.047965
v 0.119585 1.015417 -0.141897
v 0.229940 0.689534 -0.448219
v -0.119872 1.059971 -0.039390
v -0.470093 0.551830 -0.422570
v -0.158502 1.076005 0.125997
v 0.248692 -1.434489 -0.048788
v 0.076038 -1.486372 -0.183717
v -0.234132 -1.231116 -0.275624
v -0.136053 -1.524047 -0.092749
v -0.365966 -1.130040 -0.217002
v -0.375059 -1.190090 -0.007829
v -0.155740 -1.513646 0.059982
v -0.346893 -1.204786 0.145370
v -0.066533 -1.482850 0.209485
v 0.178252 -1.426916 0.177794
v 0.217354 -1.430178 0.086593
v 0.273542 -0.840728 0.432445
v 0.234999 0.581918 0.467781
v 0.371915 -0.011546 -0.724692
v -0.000766 0.250163 -0.836984
v -0.628979 0.015021 -0.627334
v -0.761568 0.235877 -0.447285
v -0.503671 0.190398 0.636082
v -0.793659 -0.229086 0.167634
v -0.300633 0.091634 0.777816
v 0.064438 0.329043 0.644973
v 0.679106 -0.282554 -0.139962
v 0.350548 -0.306110 0.477924
v 0.555496 -0.327296 0.164863
v -0.052834 0.191970 0.740099
v -0.395079 -0.550433 -0.519537
v -0.588896 -0.632661 -0.075779
v 0.015121 1.173050 0.100587
v 0.092556 1.003308 0.224026
v 0.019663 1.018268 0.232675
v 0.044225 -0.663890 -0.557901
v 0.017404 -1.244940 -0.325928
v 0.010882 -1.746017 -0.014062
v 0.014227 -1.502114 -0.180836
v -0.067033 1.056129 -0.096850
v -0.093223 -1.289762 -0.299619
v -0.113239 -1.535341 -0.148939
v -0.045753 -1.513990 -0.173032
v 0.559650 -0.815740 -0.101982
v 0.680802 0.342574 0.074997
v 0.517113 0.107766 -0.551717
v 0.189089 1.007726 -0.046609
v -0.760378 0.079517 0.338815
v 0.016741 1.054817 -0.127464
v -0.154664 -1.517294 -0.011710
v 0.049813 -1.462300 0.200812
vt 0.507023 0.599352
vt 0.499294 0.557213
vt 0.524778 0.573659
vt 0.534730 0.619249
vt 0.539038 0.668307
vt 0.521783 0.672218
vt 0.560700 0.637587
vt 0.600251 0.665312
vt 0.583156 0.682865
vt 0.753313 0.269673
vt 0.803100 0.262680
vt 0.795118 0.293182
vt 0.810640 0.294332
vt 0.820133 0.266445
vt 0.853316 0.287570
vt 0.836879 0.263915
vt 0.848988 0.263848
vt 0.788883 0.360833
vt 0.777831 0.378890
vt 0.774413 0.361015
vt 0.865756 0.340065
vt 0.846935 0.367367
vt 0.842706 0.344261
vt 0.442181 0.632546
vt 0.455575 0.671375
vt 0.430566 0.657491
vt 0.519005 0.705329
vt 0.496793 0.703436
vt 0.608684 0.697179
vt 0.599541 0.705056
vt 0.728291 0.359492
vt 0.380712 0.079760
vt 0.371097 0.112988
vt 0.363856 0.079817
vt 0.425500 0.085799
vt 0.391613 0.119807
vt 0.387634 0.116495
vt 0.903743 0.974545
vt 0.881121 0.928418
vt 0.926091 0.959823
vt 0.858080 0.973342
vt 0.868538 0.939231
vt 0.876710 0.969898
vt 0.788020 0.936139
vt 0.850812 0.930931
vt 0.821835 0.972244
vt 0.361417 0.118925
vt 0.315703 0.079786
vt 0.522024 0.546066
vt 0.538155 0.554317
vt 0.554604 0.579919
vt 0.560570 0.556184
vt 0.564730 0.588361
vt 0.578920 0.581144
vt 0.572650 0.553640
vt 0.589302 0.575904
vt 0.784086 0.244993
vt 0.814246 0.236640
vt 0.834217 0.243500
vt 0.866330 0.257074
vt 0.841932 0.241265
vt 0.851853 0.237467
vt 0.831624 0.285729
vt 0.818273 0.378141
vt 0.484263 0.646458
vt 0.504618 0.668372
vt 0.474963 0.698370
vt 0.549399 0.666157
vt 0.559960 0.680742
vt 0.540884 0.705222
vt 0.765228 0.342214
vt 0.732114 0.304601
vt 0.781283 0.338539
vt 0.804940 0.358109
vt 0.798297 0.378888
vt 0.450663 0.609437
vt 0.833725 0.320479
vt 0.860990 0.319194
vt 0.797134 0.347634
vt 0.548036 0.626873
vt 0.585226 0.622922
vt 0.374279 0.126562
vt 0.381885 0.113060
vt 0.376439 0.112636
vt 0.518484 0.610289
vt 0.535337 0.573370
vt 0.760111 0.223115
vt 0.753342 0.242091
vt 0.748667 0.241480
vt 0.861343 0.918202
vt 0.855029 0.934747
vt 0.544845 0.573166
vt 0.763365 0.242174
vt 0.757876 0.242623
vt 0.876813 0.282723
vt 0.885327 0.321272
vt 0.869108 0.364555
vt 0.889151 0.342457
vt 0.883301 0.367795
vt 0.468850 0.649149
vt 0.875066 0.933641
vt 0.395314 0.122991
vt 0.596766 0.614230
vt 0.606946 0.655813
vt 0.617809 0.680637
vt 0.732258 0.349128
vt 0.861097 0.936743
vt 0.845764 0.919206
vt 0.397801 0.082647
vt 0.839766 0.974545
vt 0.442226 0.098539
vt 0.448821 0.111315
vt 0.773020 0.237488
vt 0.767653 0.240593
vt 0.844652 0.032564
vt 0.849132 0.008384
vt 0.857328 0.011534
vt 0.833286 0.008373
vt 0.839792 0.004883
vt 0.734724 0.232392
vt 0.777174 0.234136
vt 0.862800 0.023439
vt 0.824776 0.014247
vt 0.555358 0.556256
vt 0.548916 0.556044
vt 0.543617 0.555088
vt 0.477037 0.575569
vt 0.567258 0.555262
vt 0.805326 0.226718
vt 0.823711 0.239390
vt 0.738439 0.330462
vn 0.5362 -0.4008 -0.7429
vn 0.6791 -0.3746 -0.6313
vn 0.4512 -0.4251 -0.7846
vn -0.1541 -0.3499 -0.9240
vn -0.4536 0.0264 -0.8908
vn -0.2593 0.0995 -0.9607
vn -0.8457 -0.2756 -0.4570
vn -0.9640 -0.2272 -0.1384
vn -0.9678 0.1498 -0.2024
vn -0.7145 -0.3382 0.6125
vn -0.5001 -0.3801 0.7781
vn -0.4596 -0.3048 0.8342
vn 0.2689 -0.1826 0.9457
vn 0.2436 -0.3602 0.9005
vn 0.8662 -0.1779 0.4670
vn 0.5791 -0.3947 0.7133
vn 0.8779 -0.3407 0.3365
vn -0.0127 0.4757 0.8795
vn -0.3576 0.5900 0.7239
vn -0.4659 0.5254 0.7120
vn 0.8844 -0.1064 0.4544
vn 0.6614 0.0282 0.7495
vn 0.7046 0.0139 0.7095
vn 0.8386 -0.0269 -0.5441
vn 0.6861 0.2995 -0.6630
vn 0.7707 0.1029 -0.6288
vn -0.2585 0.5956 -0.7605
vn -0.0149 0.6391 -0.7690
vn -0.9770 0.1225 0.1744
vn -0.8706 0.4845 -0.0861
vn -0.5893 0.5070 0.6291
vn 0.1146 0.5399 0.8339
vn -0.3491 0.6065 0.7143
vn -0.4348 0.5808 0.6882
vn 0.7183 0.5440 0.4338
vn 0.7336 0.5505 0.3984
vn 0.6859 0.5459 0.4812
vn 0.6516 0.6489 -0.3930
vn 0.7413 0.6207 -0.2554
vn 0.6307 0.6624 -0.4043
vn -0.0539 0.6935 -0.7184
vn 0.4389 0.6933 -0.5716
vn 0.4618 0.6854 -0.5630
vn -0.7142 0.6622 -0.2267
vn -0.6699 0.6840 -0.2887
vn -0.6572 0.6862 -0.3119
vn -0.4901 0.5948 0.6371
vn -0.5549 0.5709 0.6051
vn 0.6215 -0.4999 -0.6032
vn 0.4948 -0.5048 -0.7074
vn -0.4445 -0.4329 -0.7842
vn -0.8354 -0.5111 -0.2024
vn -0.8131 -0.4071 -0.4161
vn -0.8913 -0.4452 -0.0865
vn -0.8306 -0.5558 0.0346
vn -0.8794 -0.4672 0.0921
vn -0.7411 -0.3737 0.5578
vn -0.3914 -0.5976 0.6998
vn 0.4787 -0.5669 0.6704
vn 0.8911 -0.3850 0.2404
vn 0.7945 -0.5446 0.2686
vn 0.8086 -0.5517 0.2047
vn 0.5397 -0.1723 0.8240
vn 0.5053 0.1823 0.8435
vn 0.5121 -0.1657 -0.8428
vn 0.0832 0.0883 -0.9926
vn 0.3558 0.5122 -0.7817
vn -0.8095 -0.1506 -0.5674
vn -0.9039 0.2166 -0.3688
vn -0.6085 0.6032 -0.5156
vn -0.6411 0.0757 0.7637
vn -0.6835 -0.3180 0.6571
vn -0.4202 -0.2299 0.8778
vn 0.4592 0.4000 0.7932
vn 0.1486 0.5177 0.8425
vn 0.7783 -0.2595 -0.5718
vn 0.5856 -0.1525 0.7961
vn 0.8811 -0.1409 0.4514
vn 0.3576 -0.0289 0.9334
vn -0.4993 -0.3776 -0.7798
vn -0.9135 -0.3550 -0.1988
vn 0.1099 0.7566 0.6445
vn 0.4704 0.5583 0.6834
vn 0.1876 0.6317 0.7521
vn 0.0086 -0.3081 -0.9513
vn -0.0650 -0.3886 -0.9191
vn 0.2131 -0.6947 -0.6870
vn 0.0634 -0.5638 -0.8234
vn 0.5455 -0.5447 -0.6369
vn 0.0015 0.9520 -0.3059
vn -0.3479 0.7152 -0.6062
vn -0.1873 -0.4004 -0.8970
vn -0.4496 -0.6520 -0.6105
vn -0.0500 -0.5729 -0.8181
vn 0.9253 -0.2033 0.3202
vn 0.9237 -0.1582 0.3490
vn 0.8896 -0.0915 0.4475
vn 0.9297 -0.1193 0.3484
vn 0.9427 -0.0916 0.3208
vn 0.7605 0.1338 -0.6354
vn 0.6400 0.7517 -0.1595
vn 0.7341 0.5449 0.4052
vn -0.9149 -0.3744 -0.1509
vn -0.9544 -0.2829 -0.0957
vn -0.9761 0.0330 0.2146
vn -0.6618 0.4088 0.6284
vn 0.1377 0.7800 -0.6105
vn -0.7028 0.6729 -0.2309
vn 0.5350 0.5480 0.6430
vn -0.3062 0.7113 -0.6327
vn 0.7359 0.5421 0.4057
vn 0.7305 0.5382 0.4204
vn -0.8090 -0.5849 -0.0573
vn -0.7950 -0.5841 -0.1636
vn 0.1791 -0.7523 0.6340
vn 0.2453 -0.6064 0.7564
vn -0.2158 -0.6684 0.7118
vn 0.7668 -0.5852 0.2639
vn 0.5432 -0.6235 0.5624
vn 0.6144 -0.5338 -0.5810
vn -0.8099 -0.5863 0.0177
vn -0.6229 -0.6048 0.4962
vn 0.7893 -0.5801 0.2012
vn -0.6183 -0.5261 -0.5839
vn -0.1006 -0.5037 -0.8580
vn 0.0287 -0.4931 -0.8695
vn 0.7506 -0.2427 -0.6145
vn -0.8263 -0.5558 -0.0909
vn -0.6622 -0.5504 0.5085
vn 0.2111 -0.5221 0.8263
vn -0.7274 -0.1333 0.6732
s 1
f 1/1/1 2/2/2 3/3/3
f 4/4/4 5/5/5 6/6/6
f 7/7/7 8/8/8 9/9/9
f 10/10/10 11/11/11 12/12/12
f 13/13/13 11/11/11 14/14/14
f 15/15/15 16/16/16 17/17/17
f 18/18/18 19/19/19 20/20/20
f 21/21/21 22/22/22 23/23/23
f 24/24/24 25/25/25 26/26/26
f 6/6/6 27/27/27 28/28/28
f 9/9/9 29/29/29 30/30/30
f 30/31/31 20/20/20 19/19/19
f 31/32/32 32/33/33 19/34/34
f 22/35/35 33/36/36 34/37/37
f 25/38/38 35/39/39 26/40/40
f 28/41/41 36/42/42 37/43/43
f 30/44/44 38/45/45 39/46/46
f 19/34/34 40/47/47 30/48/48
f 3/3/3 41/49/49 42/50/50
f 43/51/51 44/52/52 45/53/53
f 46/54/54 47/55/55 48/56/56
f 48/57/57 49/58/58 11/11/11
f 14/14/14 50/59/59 16/16/16
f 2/60/60 51/61/61 41/62/62
f 52/63/63 14/14/14 16/16/16
f 53/64/64 23/23/23 22/22/22
f 54/65/65 55/66/66 37/67/67
f 56/68/68 57/69/69 39/70/70
f 39/70/70 9/9/9 30/30/30
f 58/71/71 59/72/72 60/73/73
f 61/74/74 31/75/75 18/18/18
f 62/76/76 1/1/1 54/65/65
f 63/77/77 15/15/15 64/78/78
f 13/13/13 63/77/77 65/79/79
f 12/12/12 65/79/79 60/73/73
f 59/72/72 12/12/12 60/73/73
f 66/80/80 45/53/53 7/7/7
f 67/81/81 45/53/53 46/54/54
f 68/82/82 69/83/83 34/37/37
f 68/82/82 70/84/84 69/83/83
f 7/7/7 57/69/69 56/68/68
f 54/65/65 71/85/85 55/66/66
f 71/85/85 3/3/3 72/86/86
f 73/87/87 74/88/88 42/89/89
f 66/80/80 56/68/68 5/5/5
f 5/5/5 39/70/70 27/27/27
f 68/90/90 75/91/91 38/45/45
f 43/51/51 4/4/4 76/92/92
f 73/87/87 77/93/93 78/94/94
f 79/95/95 17/17/17 2/60/60
f 64/78/78 79/95/95 62/96/96
f 80/97/97 24/98/98 26/99/99
f 81/100/100 37/67/67 25/25/25
f 68/90/90 82/101/101 36/42/42
f 68/82/82 33/36/36 35/102/102
f 10/103/103 46/54/54 48/56/56
f 67/81/81 59/104/104 8/8/8
f 8/8/8 83/105/105 29/29/29
f 29/106/106 58/71/71 20/20/20
f 60/73/73 20/20/20 58/71/71
f 65/79/79 18/18/18 60/73/73
f 61/74/74 63/77/77 23/23/23
f 64/78/78 23/23/23 63/77/77
f 21/21/21 62/96/96 24/98/98
f 62/76/76 81/100/100 24/24/24
f 55/66/66 28/28/28 37/67/67
f 55/66/66 4/4/4 6/6/6
f 4/4/4 72/86/86 76/92/92
f 32/33/33 70/84/84 68/82/82
f 34/37/37 33/36/36 68/82/82
f 35/39/39 82/101/101 68/90/90
f 36/42/42 84/107/107 68/90/90
f 38/45/45 40/108/108 68/90/90
f 40/47/47 32/33/33 68/82/82
f 34/37/37 53/109/109 22/35/35
f 69/83/83 31/32/32 53/109/109
f 38/45/45 27/110/110 39/46/46
f 82/101/101 37/43/43 36/42/42
f 35/102/102 80/111/111 26/112/112
f 73/87/87 85/113/113 44/114/114
f 73/115/115 86/116/116 49/117/117
f 73/115/115 51/118/118 50/119/119
f 73/87/87 78/94/94 74/88/88
f 28/41/41 75/91/91 84/107/107
f 68/90/90 84/107/107 75/91/91
f 42/89/89 41/120/120 73/87/87
f 44/114/114 77/93/93 73/87/87
f 47/121/121 85/113/113 73/87/87
f 49/117/117 47/122/122 73/115/115
f 50/119/119 86/116/116 73/115/115
f 41/123/123 51/118/118 73/115/115
f 42/50/50 72/86/86 3/3/3
f 77/124/124 76/92/92 78/125/125
f 44/52/52 46/54/54 45/53/53
f 49/58/58 14/14/14 11/11/11
f 50/59/59 17/17/17 16/16/16
f 74/126/126 76/92/92 72/86/86
f 1/1/1 79/127/127 2/2/2
f 4/4/4 66/80/80 5/5/5
f 7/7/7 67/81/81 8/8/8
f 10/10/10 48/57/57 11/11/11
f 13/13/13 12/12/12 11/11/11
f 15/15/15 52/63/63 16/16/16
f 18/18/18 31/75/75 19/19/19
f 21/21/21 80/97/97 22/22/22
f 24/24/24 81/100/100 25/25/25
f 6/6/6 5/5/5 27/27/27
f 9/9/9 8/8/8 29/29/29
f 30/31/31 29/106/106 20/20/20
f 31/32/32 70/84/84 32/33/33
f 22/35/35 80/111/111 33/36/36
f 25/38/38 82/101/101 35/39/39
f 28/41/41 84/107/107 36/42/42
f 30/44/44 40/108/108 38/45/45
f 19/34/34 32/33/33 40/47/47
f 3/3/3 2/2/2 41/49/49
f 43/51/51 77/124/124 44/52/52
f 46/54/54 85/128/128 47/55/55
f 48/57/57 47/129/129 49/58/58
f 14/14/14 86/130/130 50/59/59
f 2/60/60 17/17/17 51/61/61
f 52/63/63 13/13/13 14/14/14
f 53/64/64 61/74/74 23/23/23
f 39/70/70 57/69/69 9/9/9
f 58/71/71 83/131/131 59/72/72
f 61/74/74 53/64/64 31/75/75
f 62/76/76 79/127/127 1/1/1
f 63/77/77 52/63/63 15/15/15
f 13/13/13 52/63/63 63/77/77
f 12/12/12 13/13/13 65/79/79
f 59/72/72 10/10/10 12/12/12
f 66/80/80 43/51/51 45/53/53
f 67/81/81 7/7/7 45/53/53
f 7/7/7 9/9/9 57/69/69
f 54/65/65 1/1/1 71/85/85
f 71/85/85 1/1/1 3/3/3
f 66/80/80 7/7/7 56/68/68
f 5/5/5 56/68/68 39/70/70
f 43/51/51 66/80/80 4/4/4
f 79/95/95 15/15/15 17/17/17
f 64/78/78 15/15/15 79/95/95
f 80/97/97 21/21/21 24/98/98
f 81/100/100 54/65/65 37/67/67
f 10/103/103 67/81/81 46/54/54
f 67/81/81 10/103/103 59/104/104
f 8/8/8 59/104/104 83/105/105
f 29/106/106 83/131/131 58/71/71
f 60/73/73 18/18/18 20/20/20
f 65/79/79 61/74/74 18/18/18
f 61/74/74 65/79/79 63/77/77
f 64/78/78 21/21/21 23/23/23
f 21/21/21 64/78/78 62/96/96
f 62/76/76 54/65/65 81/100/100
f 55/66/66 6/6/6 28/28/28
f 55/66/66 71/85/85 4/4/4
f 4/4/4 71/85/85 72/86/86
f 34/37/37 69/83/83 53/109/109
f 69/83/83 70/84/84 31/32/32
f 38/45/45 75/91/91 27/110/110
f 82/101/101 25/38/38 37/43/43
f 35/102/102 33/36/36 80/111/111
f 28/41/41 27/110/110 75/91/91
f 42/50/50 74/126/126 72/86/86
f 77/124/124 43/51/51 76/92/92
f 44/52/52 85/128/128 46/54/54
f 49/58/58 86/130/130 14/14/14
f 50/59/59 51/61/61 17/17/17
f 74/126/126 78/125/125 76/92/92
