# Blender v2.79 (sub 0) OBJ File: ''
# www.blender.org
v 0.391840 0.867022 -0.394898
v 0.573307 0.423414 -0.115445
v 0.072614 0.081066 -0.711470
v 0.152601 0.560067 -0.658647
v 0.288067 -1.018054 -0.352315
v -0.505383 0.295241 -0.699157
v -0.207976 0.751766 -0.655378
v -0.101357 1.105733 -0.459016
v -0.049116 1.392500 -0.290162
v 0.142526 1.367019 -0.242130
v -0.563591 0.291058 -0.633062
v -0.644777 0.630485 -0.281371
v -0.312645 1.141331 -0.242373
v -0.149509 1.417175 -0.183280
v -0.638032 0.011925 -0.424216
v -0.698260 0.518717 -0.104381
v -0.642540 -0.226876 -0.328078
v -0.716517 0.016310 -0.077752
v -0.200856 -0.256756 -0.738893
v -0.627851 -0.079153 0.228757
v -0.560206 0.686969 0.268377
v -0.553946 0.116329 0.407963
v -0.435404 0.417161 0.558546
v -0.438811 0.912544 0.167959
v -0.270326 1.214736 0.035909
v -0.147472 1.425772 -0.044251
v -0.132452 0.613302 0.606583
v -0.083886 1.197461 0.192674
v -0.054154 1.417564 0.036247
v -0.048361 -0.318791 0.479496
v 0.155001 0.387441 0.573751
v 0.082008 1.175473 0.135028
v 0.254884 1.119328 0.028287
v 0.556832 0.436362 0.260990
v 0.133914 1.379080 -0.052071
v 0.041327 1.400805 0.014707
v -0.003420 1.624423 -0.135231
v 0.010124 1.601384 -0.101949
v 0.028337 1.594317 -0.117806
v -0.404981 -0.820746 -0.274016
v -0.367490 -0.724820 0.137140
v -0.578558 -0.200517 0.258977
v -0.494517 0.079479 0.464530
v -0.431346 0.192715 0.548268
v -0.009457 -0.835883 0.262983
v -0.165969 -0.463694 -0.685682
v -0.082758 -0.831559 -0.580556
v 0.272886 -0.996071 -0.012847
v -0.079379 -1.516181 -0.095645
v 0.049689 -1.512777 -0.027973
v -0.107258 -1.523531 -0.240493
v 0.031019 -1.527285 -0.372769
v 0.178403 -1.515115 -0.134188
v 0.175975 -1.522859 -0.302633
v 0.069342 -1.907272 -0.228934
v 0.086698 -1.894307 -0.213985
v 0.069086 -1.893327 -0.206445
v 0.044219 -1.862415 -0.198389
v 0.068154 -1.859606 -0.185417
v 0.037229 -1.863298 -0.224884
v 0.061284 -1.863564 -0.260188
v 0.099961 -1.857599 -0.200085
v 0.105058 -1.859704 -0.243363
v -0.011690 1.600298 -0.167101
v 0.028975 1.591756 -0.158778
v -0.032921 1.606794 -0.146645
v -0.034482 1.611211 -0.117825
v -0.012531 1.610054 -0.096462
v 0.053967 -1.892231 -0.211767
v 0.048772 -1.889138 -0.227799
v 0.063776 -1.887528 -0.249911
v 0.092040 -1.893190 -0.239336
vt 0.109179 0.456287
vt 0.160577 0.464797
vt 0.137202 0.490666
vt 0.165831 0.428941
vt 0.140619 0.345035
vt 0.206107 0.442943
vt 0.188717 0.477034
vt 0.182578 0.507491
vt 0.273765 0.325702
vt 0.249934 0.346707
vt 0.236965 0.304782
vt 0.212510 0.442787
vt 0.234573 0.472099
vt 0.206318 0.515604
vt 0.291272 0.341240
vt 0.264806 0.349675
vt 0.250316 0.463452
vt 0.253658 0.421423
vt 0.227236 0.421064
vt 0.231358 0.401065
vt 0.185690 0.403841
vt 0.322508 0.606535
vt 0.343895 0.555084
vt 0.354274 0.612043
vt 0.358033 0.569299
vt 0.372409 0.588866
vt 0.359867 0.632281
vt 0.315497 0.622959
vt 0.345921 0.665400
vt 0.369565 0.658721
vt 0.136016 0.007365
vt 0.131598 0.031715
vt 0.114692 0.013506
vt 0.391532 0.602582
vt 0.391615 0.653983
vt 0.150172 0.024889
vt 0.154781 0.004883
vt 0.413353 0.587044
vt 0.407675 0.655221
vt 0.105580 0.515635
vt 0.080693 0.456775
vt 0.424743 0.653494
vt 0.452391 0.589737
vt 0.221515 0.340769
vt 0.157349 0.027398
vt 0.167237 0.010478
vt 0.146681 0.045266
vt 0.149046 0.042734
vt 0.150568 0.043844
vt 0.307892 0.536063
vt 0.329715 0.487201
vt 0.349549 0.545915
vt 0.363417 0.566388
vt 0.392806 0.535600
vt 0.370651 0.574015
vt 0.388101 0.492874
vt 0.182511 0.388217
vt 0.208276 0.352217
vt 0.174352 0.360376
vt 0.412121 0.469051
vt 0.114630 0.342488
vt 0.368752 0.436815
vt 0.380571 0.436760
vt 0.358187 0.503613
vt 0.174281 0.301614
vt 0.134061 0.303954
vt 0.147094 0.306324
vt 0.977547 0.153479
vt 0.979415 0.154516
vt 0.978280 0.155342
vt 0.159925 0.305959
vt 0.972491 0.186531
vt 0.978942 0.158166
vt 0.983633 0.186650
vt 0.962153 0.182047
vt 0.976880 0.157962
vt 0.735131 0.034458
vt 0.730671 0.006830
vt 0.748451 0.028533
vt 0.722742 0.035426
vt 0.721272 0.008119
vt 0.724436 0.009144
vt 0.727930 0.008629
vt 0.255169 0.365778
vt 0.272736 0.357785
vt 0.258118 0.366749
vt 0.145192 0.042746
vt 0.143606 0.044085
vt 0.140784 0.026228
vt 0.147315 0.042225
vt 0.238591 0.355763
vt 0.253009 0.367889
vt 0.164955 0.031847
vt 0.181945 0.016966
vt 0.994897 0.180670
vt 0.974979 0.157128
vt 0.977120 0.155489
vt 0.727250 0.006833
vt 0.728639 0.005422
vt 0.723719 0.005537
vt 0.725191 0.006749
vt 0.256561 0.369402
vt 0.259453 0.368551
vt 0.981383 0.157149
vt 0.975963 0.155045
vt 0.726132 0.004883
vt 0.321254 0.561728
vt 0.357968 0.432791
vt 0.710143 0.032911
vt 0.392255 0.431049
vn 0.9660 0.0080 -0.2583
vn 0.4830 0.1054 -0.8692
vn 0.8401 0.2738 -0.4682
vn 0.4909 -0.1467 -0.8588
vn 0.9045 -0.1970 -0.3784
vn -0.4236 0.1246 -0.8972
vn -0.1943 0.3699 -0.9085
vn -0.2117 0.5407 -0.8142
vn 0.0744 0.4836 -0.8721
vn 0.6715 0.5110 -0.5367
vn 0.6768 0.5026 -0.5379
vn -0.8248 0.1121 -0.5542
vn -0.8195 0.3048 -0.4852
vn -0.6124 0.4917 -0.6190
vn -0.5822 0.4870 -0.6511
vn -0.2176 0.4040 -0.8885
vn -0.9662 0.0426 -0.2543
vn -0.9753 -0.0069 -0.2208
vn -0.8783 -0.1419 -0.4566
vn -0.7658 -0.2570 -0.5894
vn -0.0558 -0.2188 -0.9742
vn -0.9450 0.2271 0.2355
vn -0.9563 -0.1691 0.2386
vn -0.8031 0.3739 0.4639
vn -0.8975 0.0139 0.4408
vn -0.4020 0.1011 0.9100
vn -0.7067 0.5749 0.4123
vn -0.8473 0.5284 0.0531
vn -0.8547 0.5185 0.0263
vn -0.7415 0.5689 0.3557
vn -0.7684 0.5641 0.3023
vn -0.8622 0.5064 -0.0113
vn -0.8604 0.5096 -0.0036
vn 0.0058 0.2512 0.9679
vn -0.0883 0.5913 0.8016
vn -0.1714 0.5404 0.8238
vn -0.1314 0.5775 0.8058
vn 0.4695 -0.0634 0.8807
vn 0.4813 0.4763 0.7358
vn 0.9118 0.4084 0.0425
vn 0.9991 0.0103 0.0416
vn 0.5519 0.4486 0.7030
vn 0.6078 -0.0193 0.7939
vn 0.8999 0.4354 0.0249
vn 0.4467 0.5065 0.7375
vn 0.4825 0.4817 0.7316
vn 0.0038 0.9762 0.2167
vn 0.4913 0.4934 0.7178
vn 0.6383 0.4677 0.6114
vn -0.9200 -0.3722 0.1230
vn -0.9112 -0.3794 0.1606
vn -0.7287 -0.4105 0.5481
vn -0.4486 -0.3851 0.8065
vn 0.3035 -0.1343 0.9433
vn -0.3203 -0.2518 0.9133
vn -0.0787 -0.3984 0.9138
vn -0.1576 -0.3127 -0.9367
vn -0.6608 -0.3247 -0.6767
vn -0.3841 -0.3272 -0.8634
vn 0.5964 -0.2705 0.7558
vn 0.9781 -0.1989 0.0605
vn -0.7404 -0.4176 0.5266
vn 0.0731 -0.3948 0.9159
vn -0.7392 -0.3808 0.5554
vn -0.6609 -0.3120 -0.6825
vn 0.9779 -0.2085 0.0166
vn 0.7586 -0.2299 -0.6096
vn -0.2288 -0.8837 0.4082
vn 0.3267 -0.5075 0.7973
vn 0.0749 -0.5584 0.8262
vn -0.1947 -0.3063 -0.9318
vn -0.7084 -0.4217 0.5660
vn 0.0792 -0.3903 0.9173
vn 0.1048 -0.4060 0.9078
vn -0.9041 -0.3797 0.1961
vn -0.6833 -0.4885 0.5427
vn -0.2040 -0.3361 -0.9195
vn -0.7330 -0.2845 -0.6179
vn -0.6611 -0.3125 -0.6822
vn 0.8243 -0.2701 -0.4975
vn 0.9757 -0.2116 0.0570
vn 0.8279 -0.2768 -0.4878
vn -0.2547 -0.3524 -0.9005
vn 0.6684 0.5288 -0.5230
vn -0.5796 0.4859 -0.6542
vn -0.2482 0.6495 -0.7187
vn -0.7550 0.5978 0.2697
vn -0.8389 0.5358 -0.0955
vn -0.7291 0.6057 0.3186
vn -0.1871 0.6072 0.7722
vn 0.9017 0.4320 0.0171
vn 0.8943 0.4475 -0.0059
vn 0.5766 0.4714 0.6673
vn 0.5690 0.4731 0.6727
vn 0.5928 -0.3008 0.7471
vn -0.8990 -0.3742 0.2276
vn -0.6716 -0.6369 0.3786
vn -0.1892 -0.4289 -0.8833
vn -0.7595 -0.3638 -0.5393
vn 0.8897 -0.4337 0.1426
vn 0.7699 -0.4736 -0.4277
vn 0.3682 0.8301 -0.4186
vn -0.5442 0.4835 -0.6856
vn 0.4842 -0.2853 0.8271
vn -0.8538 -0.4854 0.1883
vn 0.0251 -0.8774 -0.4792
vn -0.9567 -0.1958 0.2153
vn -0.9067 -0.3749 0.1935
vn 0.9749 -0.2226 -0.0038
vn 0.6072 -0.2840 0.7421
s 1
f 2/1/1 4/2/2 1/3/3
f 3/4/4 2/1/1 5/5/5
f 4/2/2 6/6/6 7/7/7
f 4/2/2 8/8/8 1/3/3
f 8/9/9 10/10/10 1/11/11
f 7/7/7 11/12/12 12/13/13
f 7/7/7 13/14/14 8/8/8
f 13/15/15 9/16/16 8/9/9
f 11/12/12 16/17/17 12/13/13
f 18/18/18 15/19/19 17/20/20
f 19/21/21 6/6/6 3/4/4
f 16/22/22 20/23/23 21/24/24
f 21/24/24 22/25/25 23/26/26
f 16/22/22 24/27/27 12/28/28
f 13/29/29 24/27/27 25/30/30
f 25/31/31 14/32/32 13/33/33
f 21/24/24 27/34/34 24/27/27
f 24/27/27 28/35/35 25/30/30
f 29/36/36 25/31/31 28/37/37
f 23/26/26 31/38/38 27/34/34
f 27/34/34 32/39/39 28/35/35
f 2/1/1 33/40/40 34/41/41
f 33/42/42 31/38/38 34/43/43
f 10/10/10 33/44/44 1/11/11
f 36/45/45 28/37/37 32/46/46
f 37/47/47 38/48/48 39/49/49
f 20/23/23 17/50/50 40/51/51
f 40/51/51 42/52/52 20/23/23
f 20/23/23 43/53/53 22/25/25
f 30/54/54 23/26/26 44/55/55
f 44/55/55 22/25/25 43/53/53
f 42/52/52 45/56/56 43/53/53
f 30/54/54 43/53/53 45/56/56
f 15/19/19 6/6/6 19/21/21
f 17/20/20 19/21/21 46/57/57
f 40/58/58 46/57/57 47/59/59
f 3/4/4 46/57/57 19/21/21
f 34/43/43 30/54/54 48/60/60
f 2/1/1 48/61/61 5/5/5
f 45/56/56 49/62/62 50/63/63
f 40/51/51 49/62/62 41/64/64
f 47/59/59 51/65/65 40/58/58
f 5/5/5 53/66/66 54/67/67
f 55/68/68 56/69/69 57/70/70
f 30/54/54 45/56/56 48/60/60
f 5/5/5 52/71/71 47/59/59
f 5/5/5 47/59/59 46/57/57
f 49/72/72 59/73/73 50/74/74
f 51/75/75 58/76/76 49/72/72
f 52/77/77 60/78/78 51/79/79
f 54/80/80 62/81/81 63/82/82
f 50/63/63 48/60/60 45/56/56
f 52/77/77 63/82/82 61/83/83
f 9/16/16 65/84/84 10/10/10
f 14/85/85 64/86/86 9/16/16
f 14/32/32 67/87/87 66/88/88
f 26/89/89 68/90/90 67/87/87
f 35/91/91 65/84/84 39/92/92
f 29/36/36 38/48/48 68/90/90
f 35/93/93 32/46/46 33/94/94
f 59/73/73 53/95/95 50/74/74
f 58/76/76 57/70/70 59/73/73
f 60/96/96 69/97/97 58/76/76
f 60/78/78 71/98/98 70/99/99
f 63/82/82 56/100/100 72/101/101
f 63/82/82 71/98/98 61/83/83
f 39/49/49 36/45/45 35/93/93
f 65/84/84 64/86/86 37/102/102
f 64/86/86 66/103/103 37/102/102
f 66/88/88 67/87/87 37/47/47
f 67/87/87 68/90/90 37/47/47
f 39/92/92 65/84/84 37/102/102
f 68/90/90 38/48/48 37/47/47
f 57/70/70 62/104/104 59/73/73
f 57/70/70 69/97/97 55/68/68
f 69/97/97 70/105/105 55/68/68
f 70/99/99 71/98/98 55/106/106
f 72/101/101 56/100/100 55/106/106
f 71/98/98 72/101/101 55/106/106
f 2/1/1 3/4/4 4/2/2
f 4/2/2 3/4/4 6/6/6
f 4/2/2 7/7/7 8/8/8
f 8/9/9 9/16/16 10/10/10
f 7/7/7 6/6/6 11/12/12
f 7/7/7 12/13/13 13/14/14
f 13/15/15 14/85/85 9/16/16
f 11/12/12 15/19/19 16/17/17
f 18/18/18 16/17/17 15/19/19
f 16/22/22 18/107/107 20/23/23
f 21/24/24 20/23/23 22/25/25
f 16/22/22 21/24/24 24/27/27
f 13/29/29 12/28/28 24/27/27
f 25/31/31 26/89/89 14/32/32
f 21/24/24 23/26/26 27/34/34
f 24/27/27 27/34/34 28/35/35
f 29/36/36 26/89/89 25/31/31
f 23/26/26 30/54/54 31/38/38
f 27/34/34 31/38/38 32/39/39
f 2/1/1 1/3/3 33/40/40
f 33/42/42 32/39/39 31/38/38
f 10/10/10 35/91/91 33/44/44
f 36/45/45 29/36/36 28/37/37
f 20/23/23 18/107/107 17/50/50
f 40/51/51 41/64/64 42/52/52
f 20/23/23 42/52/52 43/53/53
f 44/55/55 23/26/26 22/25/25
f 42/52/52 41/64/64 45/56/56
f 30/54/54 44/55/55 43/53/53
f 15/19/19 11/12/12 6/6/6
f 17/20/20 15/19/19 19/21/21
f 40/58/58 17/20/20 46/57/57
f 3/4/4 5/5/5 46/57/57
f 34/43/43 31/38/38 30/54/54
f 2/1/1 34/41/41 48/61/61
f 45/56/56 41/64/64 49/62/62
f 40/51/51 51/108/108 49/62/62
f 47/59/59 52/71/71 51/65/65
f 5/5/5 48/61/61 53/66/66
f 5/5/5 54/67/67 52/71/71
f 49/72/72 58/76/76 59/73/73
f 51/75/75 60/96/96 58/76/76
f 52/77/77 61/83/83 60/78/78
f 54/80/80 53/109/109 62/81/81
f 50/63/63 53/110/110 48/60/60
f 52/77/77 54/80/80 63/82/82
f 9/16/16 64/86/86 65/84/84
f 14/85/85 66/103/103 64/86/86
f 14/32/32 26/89/89 67/87/87
f 26/89/89 29/36/36 68/90/90
f 35/91/91 10/10/10 65/84/84
f 29/36/36 36/45/45 38/48/48
f 35/93/93 36/45/45 32/46/46
f 59/73/73 62/104/104 53/95/95
f 58/76/76 69/97/97 57/70/70
f 60/96/96 70/105/105 69/97/97
f 60/78/78 61/83/83 71/98/98
f 63/82/82 62/81/81 56/100/100
f 63/82/82 72/101/101 71/98/98
f 39/49/49 38/48/48 36/45/45
f 57/70/70 56/69/69 62/104/104
