# Blender v2.79 (sub 0) OBJ File: 'boss.blend'
# www.blender.org
v -0.587743 0.527993 0.327274
v -0.619159 1.068742 0.327274
v -0.673126 -0.083050 0.327274
v -0.903387 -0.297588 0.327274
v -1.007615 -0.423906 0.327274
v -1.116944 -0.584633 0.327274
v -1.214697 -0.759661 0.327274
v -1.307690 -0.965007 0.327274
v -1.391146 -1.227492 0.327274
v -1.461986 -1.582553 0.327274
v -1.490037 -1.894653 0.327274
v -1.484624 -2.460476 0.327274
v -1.545207 -2.082579 0.327274
v -1.579538 -1.635777 0.327274
v -1.653137 -1.599574 0.327274
v -1.709337 -1.495930 0.327274
v -1.712770 -1.369261 0.327274
v -1.678501 -1.294141 0.327274
v -1.622201 -1.255600 0.327274
v -1.584450 -1.256878 0.327274
v -1.576988 -1.027565 0.327274
v -1.639140 -0.989049 0.327274
v -1.681625 -0.903169 0.327274
v -1.694227 -0.796734 0.327274
v -1.663352 -0.669598 0.327274
v -1.599067 -0.589673 0.327274
v -1.527330 -0.569769 0.327274
v -1.494766 -0.408337 0.327274
v -1.566352 -0.358552 0.327274
v -1.603915 -0.239471 0.327274
v -1.578103 -0.090301 0.327274
v -1.499941 0.043706 0.327274
v -1.402076 0.108782 0.327274
v -1.348103 0.114971 0.327274
v -1.285496 0.265781 0.327274
v -1.316958 0.355271 0.327274
v -1.309669 0.510579 0.327274
v -1.264753 0.640877 0.327274
v -1.183250 0.753723 0.327274
v -1.081135 0.847472 0.327274
v -0.993734 0.891891 0.327274
v -0.886730 0.889602 0.327274
v -0.741214 1.030591 0.327274
v -0.737876 -0.121211 0.432647
v -0.660597 0.431841 0.432647
v -0.689031 0.921269 0.432647
v -0.946283 -0.315388 0.432647
v -1.040620 -0.429718 0.432647
v -1.139573 -0.575191 0.432647
v -1.228048 -0.733607 0.432647
v -1.312216 -0.919464 0.432647
v -1.387751 -1.157038 0.432647
v -1.451869 -1.478402 0.432647
v -1.477257 -1.760881 0.432647
v -1.472357 -2.273004 0.432647
v -1.527191 -1.930972 0.432647
v -1.558263 -1.526574 0.432647
v -1.624877 -1.493807 0.432647
v -1.675744 -1.399999 0.432647
v -1.678851 -1.285352 0.432647
v -1.647835 -1.217362 0.432647
v -1.596878 -1.182479 0.432647
v -1.562710 -1.183635 0.432647
v -1.555956 -0.976085 0.432647
v -1.612209 -0.941225 0.432647
v -1.650662 -0.863495 0.432647
v -1.662068 -0.767161 0.432647
v -1.634123 -0.652092 0.432647
v -1.575939 -0.579753 0.432647
v -1.511011 -0.561737 0.432647
v -1.481537 -0.415626 0.432647
v -1.546329 -0.370566 0.432647
v -1.580327 -0.262787 0.432647
v -1.556965 -0.127774 0.432647
v -1.486221 -0.006485 0.432647
v -1.397644 0.052415 0.432647
v -1.348794 0.058017 0.432647
v -1.292128 0.194514 0.432647
v -1.320604 0.275511 0.432647
v -1.314007 0.416079 0.432647
v -1.273354 0.534011 0.432647
v -1.199586 0.636147 0.432647
v -1.107162 0.720999 0.432647
v -1.028057 0.761202 0.432647
v -0.931208 0.759130 0.432647
v -0.799502 0.886739 0.432647
vt 0.135800 0.755459
vt 0.104183 0.752452
vt 0.074036 0.740048
vt 0.451379 0.330333
vt 0.416179 0.312559
vt 0.454977 0.267664
vt 0.820744 0.775261
vt 0.778553 0.849775
vt 0.820744 0.849775
vt 0.607603 0.785324
vt 0.514367 0.866655
vt 0.607603 0.866655
vt 0.863841 0.906341
vt 0.821650 0.888391
vt 0.821650 0.906341
vt 0.863841 0.775261
vt 0.821650 0.849775
vt 0.863841 0.849775
vt 0.659279 0.887113
vt 0.566043 0.968445
vt 0.659279 0.968445
vt 0.864747 0.775261
vt 0.906938 0.812066
vt 0.906938 0.775261
vt 0.906938 0.774355
vt 0.735456 0.737551
vt 0.735456 0.774355
vt 0.906938 0.812971
vt 0.864747 0.849775
vt 0.906938 0.849775
vt 0.950941 0.699841
vt 0.971584 0.717790
vt 0.971584 0.699841
vt 0.735456 0.775261
vt 0.777647 0.849775
vt 0.777647 0.775261
vt 0.906938 0.850681
vt 0.864747 0.887485
vt 0.906938 0.887485
vt 0.950941 0.718696
vt 0.971584 0.736646
vt 0.971584 0.718696
vt 0.865842 0.849818
vt 0.776552 0.888349
vt 0.865842 0.888349
vt 0.478543 0.503126
vt 0.432926 0.421795
vt 0.432926 0.503126
vt 0.777647 0.926101
vt 0.735456 0.944050
vt 0.777647 0.944050
vt 0.478543 0.588462
vt 0.432926 0.669793
vt 0.478543 0.669793
vt 0.692359 0.944050
vt 0.734550 0.926101
vt 0.692359 0.926101
vt 0.692359 0.699841
vt 0.734550 0.849775
vt 0.734550 0.699841
vt 0.971584 0.737551
vt 0.950941 0.755500
vt 0.971584 0.755500
vt 0.000561 0.852099
vt 0.093797 0.933430
vt 0.093797 0.852099
vt 0.430924 0.588462
vt 0.337688 0.669793
vt 0.430924 0.669793
vt 0.906938 0.699841
vt 0.735456 0.736646
vt 0.906938 0.736646
vt 0.478543 0.505128
vt 0.432926 0.586460
vt 0.478543 0.586460
vt 0.459497 0.890805
vt 0.552733 0.972136
vt 0.552733 0.890805
vt 0.950035 0.699841
vt 0.907844 0.736646
vt 0.950035 0.736646
vt 0.777647 0.850681
vt 0.692359 0.887485
vt 0.777647 0.887485
vt 0.734550 0.888391
vt 0.692359 0.925196
vt 0.734550 0.925196
vt 0.885390 0.888391
vt 0.864747 0.925196
vt 0.885390 0.925196
vt 0.907844 0.737551
vt 0.950035 0.774355
vt 0.950035 0.737551
vt 0.777647 0.888391
vt 0.735456 0.925196
vt 0.777647 0.925196
vt 0.863841 0.925196
vt 0.821650 0.907246
vt 0.821650 0.925196
vt 0.929393 0.888391
vt 0.950035 0.925196
vt 0.950035 0.888391
vt 0.208956 0.901314
vt 0.115720 0.982646
vt 0.208956 0.982646
vt 0.820744 0.944050
vt 0.778553 0.926101
vt 0.778553 0.944050
vt 0.478543 0.671795
vt 0.432926 0.753126
vt 0.478543 0.753126
vt 0.886296 0.925196
vt 0.928487 0.907246
vt 0.886296 0.907246
vt 0.778553 0.888391
vt 0.820744 0.925196
vt 0.820744 0.888391
vt 0.950035 0.775261
vt 0.907844 0.812066
vt 0.950035 0.812066
vt 0.950035 0.812971
vt 0.907844 0.849775
vt 0.950035 0.849775
vt 0.950035 0.850681
vt 0.929393 0.887485
vt 0.950035 0.887485
vt 0.493674 0.858709
vt 0.305200 0.777378
vt 0.305200 0.858709
vt 0.928487 0.887485
vt 0.907844 0.850681
vt 0.907844 0.887485
vt 0.928487 0.906341
vt 0.886296 0.888391
vt 0.886296 0.906341
vt 0.328226 0.426445
vt 0.379951 0.537700
vt 0.072829 0.513403
vt 0.314015 0.588642
vt 0.068155 0.543326
vt 0.288355 0.616777
vt 0.191752 0.348204
vt 0.237533 0.334334
vt 0.075268 0.400192
vt 0.105600 0.387288
vt 0.150858 0.381338
vt 0.265485 0.651195
vt 0.081575 0.642969
vt 0.249525 0.687411
vt 0.091038 0.672955
vt 0.045827 0.422541
vt 0.027779 0.446987
vt 0.046792 0.499718
vt 0.027594 0.472295
vt 0.239909 0.728613
vt 0.014614 0.564718
vt 0.046380 0.547603
vt 0.242487 0.779180
vt 0.053490 0.722298
vt 0.001001 0.592643
vt 0.044381 0.638563
vt 0.011542 0.620097
vt 0.263630 0.845086
vt 0.165533 0.795753
vt 0.147356 0.844705
vt 0.296583 0.900988
vt 0.379951 0.998999
vt 0.300352 0.936920
vt 0.221900 0.861309
vt 0.048232 0.698373
vt 0.063770 0.680670
vt 0.185808 0.859383
vt 0.127759 0.822895
vt 0.131382 0.807808
vt 0.149498 0.797770
vt 0.679272 0.227543
vt 0.752005 0.189413
vt 0.660933 0.371877
vt 0.857477 0.220713
vt 0.694368 0.369416
vt 0.931746 0.274647
vt 0.904354 0.301319
vt 0.857590 0.324952
vt 0.838854 0.351390
vt 0.816714 0.369027
vt 0.642035 0.242305
vt 0.598807 0.255377
vt 0.557496 0.363107
vt 0.784664 0.386056
vt 0.753468 0.396397
vt 0.726216 0.396273
vt 0.701978 0.384783
vt 0.555530 0.264387
vt 0.527848 0.357292
vt 0.508624 0.269637
vt 0.650398 0.384585
vt 0.623341 0.403022
vt 0.589615 0.410735
vt 0.562981 0.404312
vt 0.552089 0.384920
vt 0.389907 0.254683
vt 0.464574 0.378819
vt 0.358609 0.322750
vt 0.301217 0.232344
vt 0.256201 0.185180
vt 0.338809 0.234880
vt 0.361091 0.278962
vt 0.353319 0.300106
vt 0.512120 0.373184
vt 0.488856 0.382117
vt 0.451100 0.366630
vt 0.376706 0.334421
vt 0.409638 0.321926
vt 0.393910 0.332439
vt 0.445989 0.348868
vt 0.778553 0.775261
vt 0.514367 0.785324
vt 0.863841 0.888391
vt 0.821650 0.775261
vt 0.566043 0.887113
vt 0.864747 0.812066
vt 0.906938 0.737551
vt 0.864747 0.812971
vt 0.950941 0.717790
vt 0.735456 0.849775
vt 0.864747 0.850681
vt 0.950941 0.736646
vt 0.776552 0.849818
vt 0.478543 0.421795
vt 0.735456 0.926101
vt 0.432926 0.588462
vt 0.734550 0.944050
vt 0.692359 0.849775
vt 0.950941 0.737551
vt 0.000561 0.933430
vt 0.337688 0.588462
vt 0.735456 0.699841
vt 0.432926 0.505128
vt 0.459497 0.972136
vt 0.907844 0.699841
vt 0.692359 0.850681
vt 0.692359 0.888391
vt 0.864747 0.888391
vt 0.907844 0.774355
vt 0.735456 0.888391
vt 0.863841 0.907246
vt 0.929393 0.925196
vt 0.115720 0.901314
vt 0.820744 0.926101
vt 0.432926 0.671795
vt 0.928487 0.925196
vt 0.778553 0.925196
vt 0.907844 0.775261
vt 0.907844 0.812971
vt 0.929393 0.850681
vt 0.493674 0.777378
vt 0.928487 0.850681
vt 0.928487 0.888391
vn -0.0000 -0.0000 -1.0000
vn -0.0000 0.0000 1.0000
vn 0.9759 -0.1947 0.0987
vn -0.9989 0.0469 0.0009
vn -0.9413 -0.1115 0.3186
vn 0.9960 -0.0895 -0.0072
vn -0.9165 0.3159 0.2456
vn -0.9470 0.2300 0.2245
vn 0.9912 0.0095 -0.1323
vn -0.7170 0.5178 0.4667
vn -0.7744 0.6228 0.1113
vn -0.9179 -0.1471 0.3686
vn -0.5496 0.5986 0.5828
vn -0.2672 0.9631 -0.0320
vn -0.9600 -0.0738 0.2702
vn -0.3271 0.6437 0.6918
vn -0.9712 0.1959 0.1355
vn -0.3091 -0.6285 0.7137
vn 0.0134 0.6255 0.7801
vn 0.8647 -0.1208 0.4876
vn -0.5709 -0.8209 0.0149
vn -0.7154 -0.3879 0.5812
vn -0.5979 0.6171 0.5117
vn 0.8013 0.0466 0.5965
vn -0.9435 -0.2976 0.1454
vn -0.9455 -0.0256 0.3247
vn -0.1969 0.6300 0.7512
vn 0.6738 -0.7231 0.1521
vn -0.9540 0.1651 0.2501
vn -0.9092 0.4147 -0.0376
vn 0.7554 -0.6233 0.2022
vn -0.8147 0.4752 0.3324
vn -0.5176 0.7562 -0.4003
vn 0.8062 -0.5484 0.2223
vn -0.5014 0.7540 0.4244
vn 0.0277 0.8181 -0.5744
vn 0.8506 -0.4751 0.2252
vn -0.1004 0.8756 0.4726
vn -0.9830 0.0320 0.1806
vn 0.8901 -0.4031 0.2125
vn -0.9054 0.3759 0.1972
vn -0.4673 -0.7540 0.4616
vn 0.9392 -0.2986 0.1694
vn -0.9076 -0.3191 -0.2729
vn -0.8233 -0.4073 0.3953
vn -0.9092 0.4148 -0.0376
s off
f 21/1/1 22/2/1 23/3/1
f 64/4/2 63/5/2 52/6/2
f 9/7/3 53/8/3 10/9/3
f 36/10/4 80/11/4 37/12/4
f 66/13/5 24/14/5 23/15/5
f 10/16/6 54/17/6 11/18/6
f 37/19/7 81/20/7 38/21/7
f 67/22/8 25/23/8 24/24/8
f 11/25/9 55/26/9 12/27/9
f 38/28/10 82/29/10 39/30/10
f 68/31/11 26/32/11 25/33/11
f 55/34/12 13/35/12 12/36/12
f 39/37/13 83/38/13 40/39/13
f 69/40/14 27/41/14 26/42/14
f 56/43/15 14/44/15 13/45/15
f 40/46/16 84/47/16 41/48/16
f 70/49/17 28/50/17 27/51/17
f 57/52/18 15/53/18 14/54/18
f 41/55/19 85/56/19 42/57/19
f 45/58/20 3/59/20 1/60/20
f 28/61/21 72/62/21 29/63/21
f 58/64/22 16/65/22 15/66/22
f 42/67/23 86/68/23 43/69/23
f 46/70/24 1/71/24 2/72/24
f 29/73/25 73/74/25 30/75/25
f 59/76/26 17/77/26 16/78/26
f 43/79/27 46/80/27 2/81/27
f 44/82/28 4/83/28 3/84/28
f 30/85/29 74/86/29 31/87/29
f 60/88/30 18/89/30 17/90/30
f 47/91/31 5/92/31 4/93/31
f 31/94/32 75/95/32 32/96/32
f 61/97/33 19/98/33 18/99/33
f 48/100/34 6/101/34 5/102/34
f 32/103/35 76/104/35 33/105/35
f 62/106/36 20/107/36 19/108/36
f 6/109/37 50/110/37 7/111/37
f 33/112/38 77/113/38 34/114/38
f 63/115/39 21/116/39 20/117/39
f 7/118/40 51/119/40 8/120/40
f 34/121/41 78/122/41 35/123/41
f 64/124/42 22/125/42 21/126/42
f 8/127/43 52/128/43 9/129/43
f 35/130/44 79/131/44 36/132/44
f 65/133/45 23/134/45 22/135/45
f 1/136/1 3/137/1 35/138/1
f 3/137/1 4/139/1 34/140/1
f 35/138/1 3/137/1 34/140/1
f 4/139/1 5/141/1 34/140/1
f 43/142/1 2/143/1 1/136/1
f 40/144/1 41/145/1 42/146/1
f 42/146/1 43/142/1 1/136/1
f 5/141/1 6/147/1 28/148/1
f 6/147/1 7/149/1 27/150/1
f 40/144/1 42/146/1 39/151/1
f 42/146/1 1/136/1 39/151/1
f 38/152/1 39/151/1 1/136/1
f 36/153/1 37/154/1 35/138/1
f 37/154/1 38/152/1 1/136/1
f 35/138/1 37/154/1 1/136/1
f 34/140/1 5/141/1 28/148/1
f 7/149/1 8/155/1 27/150/1
f 32/156/1 33/157/1 34/140/1
f 28/148/1 6/147/1 27/150/1
f 8/155/1 9/158/1 21/1/1
f 27/150/1 8/155/1 24/159/1
f 31/160/1 32/156/1 34/140/1
f 29/161/1 30/162/1 28/148/1
f 30/162/1 31/160/1 28/148/1
f 9/158/1 10/163/1 20/164/1
f 20/164/1 10/163/1 16/165/1
f 11/166/1 12/167/1 13/168/1
f 10/163/1 11/166/1 14/169/1
f 28/148/1 31/160/1 34/140/1
f 25/170/1 26/171/1 27/150/1
f 10/163/1 14/169/1 15/172/1
f 11/166/1 13/168/1 14/169/1
f 15/172/1 16/165/1 10/163/1
f 8/155/1 21/1/1 23/3/1
f 24/159/1 25/170/1 27/150/1
f 21/1/1 9/158/1 20/164/1
f 16/165/1 17/173/1 20/164/1
f 17/173/1 18/174/1 20/164/1
f 18/174/1 19/175/1 20/164/1
f 23/3/1 24/159/1 8/155/1
f 47/176/2 44/177/2 77/178/2
f 44/177/2 45/179/2 78/180/2
f 45/179/2 46/181/2 86/182/2
f 85/183/2 84/184/2 83/185/2
f 45/179/2 86/182/2 85/183/2
f 48/186/2 47/176/2 77/178/2
f 44/177/2 78/180/2 77/178/2
f 49/187/2 48/186/2 71/188/2
f 45/179/2 85/183/2 82/189/2
f 85/183/2 83/185/2 82/189/2
f 82/189/2 81/190/2 45/179/2
f 81/190/2 80/191/2 45/179/2
f 80/191/2 79/192/2 78/180/2
f 80/191/2 78/180/2 45/179/2
f 50/193/2 49/187/2 70/194/2
f 48/186/2 77/178/2 71/188/2
f 51/195/2 50/193/2 70/194/2
f 77/178/2 76/196/2 75/197/2
f 49/187/2 71/188/2 70/194/2
f 52/6/2 51/195/2 64/4/2
f 77/178/2 75/197/2 74/198/2
f 74/198/2 73/199/2 71/188/2
f 73/199/2 72/200/2 71/188/2
f 53/201/2 52/6/2 63/5/2
f 51/195/2 70/194/2 67/202/2
f 53/201/2 63/5/2 59/203/2
f 56/204/2 55/205/2 54/206/2
f 54/206/2 53/201/2 57/207/2
f 57/207/2 53/201/2 58/208/2
f 77/178/2 74/198/2 71/188/2
f 70/194/2 69/209/2 68/210/2
f 56/204/2 54/206/2 57/207/2
f 59/203/2 58/208/2 53/201/2
f 64/4/2 51/195/2 66/211/2
f 70/194/2 68/210/2 67/202/2
f 60/212/2 59/203/2 63/5/2
f 62/213/2 61/214/2 63/5/2
f 61/214/2 60/212/2 63/5/2
f 67/202/2 66/211/2 51/195/2
f 66/211/2 65/215/2 64/4/2
f 9/7/3 52/216/3 53/8/3
f 36/10/4 79/217/4 80/11/4
f 66/13/5 67/218/5 24/14/5
f 10/16/6 53/219/6 54/17/6
f 37/19/7 80/220/7 81/20/7
f 67/22/8 68/221/8 25/23/8
f 11/25/9 54/222/9 55/26/9
f 38/28/10 81/223/10 82/29/10
f 68/31/11 69/224/11 26/32/11
f 55/34/12 56/225/12 13/35/12
f 39/37/13 82/226/13 83/38/13
f 69/40/14 70/227/14 27/41/14
f 56/43/15 57/228/15 14/44/15
f 40/46/16 83/229/16 84/47/16
f 70/49/17 71/230/17 28/50/17
f 57/52/18 58/231/18 15/53/18
f 41/55/19 84/232/19 85/56/19
f 45/58/20 44/233/20 3/59/20
f 28/61/21 71/234/21 72/62/21
f 58/64/22 59/235/22 16/65/22
f 42/67/23 85/236/23 86/68/23
f 46/70/24 45/237/24 1/71/24
f 29/73/25 72/238/25 73/74/25
f 59/76/26 60/239/26 17/77/26
f 43/79/27 86/240/27 46/80/27
f 44/82/28 47/241/28 4/83/28
f 30/85/29 73/242/29 74/86/29
f 60/88/46 61/243/46 18/89/46
f 47/91/31 48/244/31 5/92/31
f 31/94/32 74/245/32 75/95/32
f 61/97/33 62/246/33 19/98/33
f 48/100/34 49/247/34 6/101/34
f 32/103/35 75/248/35 76/104/35
f 62/106/36 63/249/36 20/107/36
f 6/109/37 49/250/37 50/110/37
f 33/112/38 76/251/38 77/113/38
f 63/115/39 64/252/39 21/116/39
f 7/118/40 50/253/40 51/119/40
f 34/121/41 77/254/41 78/122/41
f 64/124/42 65/255/42 22/125/42
f 8/127/43 51/256/43 52/128/43
f 35/130/44 78/257/44 79/131/44
f 65/133/45 66/258/45 23/134/45
