# Blender v2.79 (sub 0) OBJ File: 'boss.blend'
# www.blender.org
o Plane.001
v -0.484182 -1.577390 0.105554
v 0.000000 -1.577387 0.105554
v -0.558583 -1.486422 0.105554
v -0.554061 -1.283296 0.105554
v -0.619351 -1.284517 0.105554
v -0.621907 -0.820734 0.105554
v -1.123066 0.254542 0.105554
v 0.000000 1.252597 0.105554
v 0.484182 -1.577390 0.105554
v 0.000000 -1.577387 0.105554
v 0.558583 -1.486422 0.105554
v 0.554061 -1.283296 0.105554
v 0.619351 -1.284517 0.105554
v 0.621907 -0.820734 0.105554
v 1.123066 0.254542 0.105554
v 0.000000 1.252597 0.105554
v -0.606409 -1.543882 -0.081343
v -0.525638 -1.642639 -0.081343
v 0.000000 -1.642636 -0.081343
v -0.672381 -1.324690 -0.081343
v -0.601501 -1.323365 -0.081343
v -0.675156 -0.821197 -0.081343
v -1.219225 0.346146 -0.081343
v 0.000000 1.429656 -0.081343
v 0.606409 -1.543882 -0.081343
v 0.525638 -1.642639 -0.081343
v 0.000000 -1.642636 -0.081343
v 0.672381 -1.324690 -0.081343
v 0.601501 -1.323365 -0.081343
v 0.675156 -0.821197 -0.081343
v 1.219225 0.346146 -0.081343
v 0.000000 1.429656 -0.081343
v 0.000000 -2.163861 0.337139
v -0.420893 -1.842090 0.337139
v -0.424280 -1.475581 0.337139
v -0.423718 -1.205431 0.337139
v -0.225068 -1.005515 0.337139
v -0.222538 -0.671480 0.337139
v 0.000000 -0.317200 0.337139
v 0.000000 -2.163861 0.337139
v 0.420893 -1.842090 0.337140
v 0.424280 -1.475581 0.337140
v 0.423718 -1.205431 0.337140
v 0.225068 -1.005515 0.337140
v 0.222538 -0.671480 0.337140
v 0.000000 -0.317200 0.337139
v -0.000819 -2.270079 0.119267
v -0.469293 -1.911307 0.119267
v -0.473069 -1.502652 0.119267
v -0.472443 -1.201436 0.119267
v -0.250949 -0.978532 0.119267
v -0.248128 -0.606085 0.119267
v -0.001240 -0.211066 0.119267
v 0.000820 -2.270079 0.119267
v 0.469293 -1.911307 0.119267
v 0.473069 -1.502652 0.119267
v 0.472443 -1.201436 0.119267
v 0.250949 -0.978532 0.119267
v 0.248128 -0.606085 0.119267
v 0.001240 -0.211066 0.119267
v 0.183674 -1.009221 0.108363
v 0.024937 -1.009389 0.108363
v 0.179820 0.391101 0.108363
v 0.022057 0.567499 0.108363
v 0.227552 0.565179 0.108363
v 0.235472 0.791074 0.108363
v 0.183633 1.061068 0.108363
v 0.103715 1.246464 0.108363
v -0.001403 1.415660 0.108363
v -0.198504 -1.009221 0.108364
v -0.039767 -1.009389 0.108363
v -0.194650 0.391101 0.108364
v -0.036887 0.567499 0.108363
v -0.242382 0.565179 0.108364
v -0.250302 0.791074 0.108364
v -0.198463 1.061068 0.108364
v -0.118545 1.246464 0.108363
v -0.013427 1.415660 0.108363
v -0.019879 0.581747 0.108363
v 0.002441 0.581747 0.108363
v 0.210259 0.557451 0.326255
v 0.166038 0.396178 0.326255
v 0.169609 -0.901144 0.326255
v 0.022548 -0.901299 0.326255
v 0.019880 0.559600 0.326255
v 0.217597 0.766730 0.326255
v 0.169571 1.016865 0.326255
v 0.095531 1.188624 0.326255
v -0.001854 1.345375 0.326255
v -0.012995 1.345375 0.326255
v -0.225108 0.557451 0.326255
v -0.180887 0.396178 0.326255
v -0.184458 -0.901144 0.326255
v -0.037397 -0.901299 0.326255
v -0.034729 0.559600 0.326255
v -0.232446 0.766730 0.326255
v -0.184420 1.016865 0.326255
v -0.110380 1.188624 0.326255
v -0.018971 0.572800 0.326255
v 0.001706 0.572800 0.326255
vt 0.510623 0.093684
vt 0.510906 0.041749
vt 0.518118 0.041886
vt 0.368895 0.241126
vt 0.437597 0.325857
vt 0.376390 0.292924
vt 0.068935 0.261005
vt 0.143518 0.352991
vt 0.077071 0.317239
vt 0.221285 0.100939
vt 0.221592 0.044557
vt 0.229422 0.044705
vt 0.146811 0.801124
vt 0.250809 0.634776
vt 0.250809 0.801051
vt 0.434402 0.687765
vt 0.537607 0.363622
vt 0.537607 0.680494
vt 0.971988 0.521484
vt 0.959100 0.416702
vt 0.971988 0.416505
vt 0.416738 0.667906
vt 0.313533 0.343763
vt 0.416738 0.351035
vt 0.961553 0.398454
vt 0.974405 0.293664
vt 0.974405 0.398599
vt 0.889302 0.398599
vt 0.942789 0.293705
vt 0.942789 0.398599
vt 0.872298 0.945586
vt 0.818811 0.840692
vt 0.872298 0.840692
vt 0.963853 0.945586
vt 0.971055 0.841103
vt 0.971055 0.945964
vt 0.701070 0.990636
vt 0.693867 0.886153
vt 0.701070 0.885775
vt 0.292815 0.725448
vt 0.270393 0.621606
vt 0.292815 0.620612
vt 0.500924 0.950567
vt 0.523346 0.846725
vt 0.523346 0.951561
vt 0.940332 0.521258
vt 0.889108 0.416550
vt 0.940332 0.416505
vt 0.894348 0.945449
vt 0.945572 0.840741
vt 0.945572 0.945493
vt 0.796567 0.716171
vt 0.693250 0.593310
vt 0.796567 0.592216
vt 0.416903 0.707834
vt 0.313533 0.828503
vt 0.313533 0.705671
vt 0.797243 0.510111
vt 0.693245 0.343763
vt 0.797243 0.343836
vt 0.481340 0.705671
vt 0.456584 0.835389
vt 0.434567 0.782755
vt 0.895686 0.086026
vt 0.920442 0.008953
vt 0.920442 0.215744
vt 0.838780 0.678152
vt 0.866383 0.592216
vt 0.866383 0.822786
vt 0.867058 0.293705
vt 0.839456 0.438339
vt 0.814907 0.379653
vt 0.889304 0.714663
vt 0.935019 0.594303
vt 0.935019 0.716535
vt 0.675581 0.343763
vt 0.555271 0.562456
vt 0.555271 0.355686
vt 0.596989 0.020807
vt 0.717298 0.239500
vt 0.596989 0.227577
vt 0.015528 0.937427
vt 0.073754 0.815451
vt 0.073754 0.937764
vt 0.211589 0.941383
vt 0.153492 0.819216
vt 0.211589 0.819030
vt 0.562943 0.908765
vt 0.600404 0.786680
vt 0.603421 0.908761
vt 0.726523 0.745784
vt 0.763985 0.867869
vt 0.723506 0.867865
vt 0.633677 0.786685
vt 0.633262 0.908765
vt 0.693250 0.745789
vt 0.693665 0.867869
vt 0.094983 0.937071
vt 0.125986 0.815158
vt 0.125986 0.937145
vt 0.533572 0.827658
vt 0.502569 0.705745
vt 0.533572 0.705671
vt 0.415518 0.981148
vt 0.378629 0.860007
vt 0.415518 0.859088
vt 0.942348 0.272716
vt 0.979237 0.151576
vt 0.979237 0.273635
vt 0.280225 0.941261
vt 0.234510 0.820901
vt 0.280225 0.819030
vt 0.758538 0.103931
vt 0.734962 0.078895
vt 0.760417 0.102335
vt 0.856005 0.073750
vt 0.832422 0.095466
vt 0.830138 0.095466
vt 0.981296 0.130996
vt 0.961474 0.009819
vt 0.981296 0.008953
vt 0.161182 0.572391
vt 0.281670 0.597724
vt 0.161316 0.602706
vt 0.959900 0.131930
vt 0.941283 0.010481
vt 0.008965 0.445907
vt 0.129212 0.427385
vt 0.129320 0.445371
vt 0.356723 0.860738
vt 0.336901 0.981915
vt 0.335327 0.859804
vt 0.989652 0.538757
vt 0.990932 0.416505
vt 0.990981 0.538757
vt 0.668876 0.909182
vt 0.652631 0.786715
vt 0.668876 0.786680
vt 0.316710 0.981253
vt 0.313533 0.859088
vt 0.161316 0.527696
vt 0.281562 0.546218
vt 0.161199 0.547111
vt 0.129147 0.620612
vt 0.008832 0.785116
vt 0.008832 0.621544
vt 0.991168 0.962493
vt 0.988900 0.840705
vt 0.991168 0.840692
vt 0.970218 0.592253
vt 0.953972 0.714721
vt 0.952683 0.592216
vt 0.129293 0.590637
vt 0.008936 0.602706
vt 0.791973 0.745823
vt 0.789515 0.867349
vt 0.789320 0.745784
vt 0.675586 0.768774
vt 0.555271 0.604270
vt 0.675586 0.592216
vt 0.008849 0.426492
vt 0.129197 0.403964
vt 0.987882 0.713940
vt 0.990247 0.592216
vt 0.990348 0.713940
vt 0.281643 0.382966
vt 0.281670 0.528232
vt 0.008832 0.401211
vt 0.129320 0.375879
vt 0.281547 0.569639
vt 0.517619 0.019140
vt 0.525838 0.008953
vt 0.579324 0.008953
vt 0.579324 0.325857
vt 0.455261 0.214094
vt 0.384110 0.325857
vt 0.375891 0.315671
vt 0.369178 0.293061
vt 0.313533 0.120716
vt 0.437597 0.008953
vt 0.085452 0.352991
vt 0.076529 0.341932
vt 0.069241 0.317387
vt 0.008832 0.130285
vt 0.143518 0.008953
vt 0.228879 0.020012
vt 0.237802 0.008953
vt 0.295869 0.008953
vt 0.295869 0.352991
vt 0.161182 0.231659
vt 0.146811 0.620612
vt 0.434402 0.343763
vt 0.957996 0.521698
vt 0.313533 0.687765
vt 0.960453 0.293506
vt 0.884722 0.293705
vt 0.814231 0.945586
vt 0.963236 0.840692
vt 0.693250 0.991047
vt 0.268473 0.726527
vt 0.499004 0.845646
vt 0.884722 0.521306
vt 0.889962 0.840692
vt 0.693250 0.727878
vt 0.416903 0.841183
vt 0.693245 0.524275
vt 0.434933 0.741713
vt 0.481340 0.912462
vt 0.456871 0.872795
vt 0.434635 0.813007
vt 0.874034 0.179702
vt 0.873669 0.138660
vt 0.873737 0.108408
vt 0.895973 0.048620
vt 0.814639 0.782600
vt 0.814231 0.736838
vt 0.814307 0.703108
vt 0.839100 0.636445
vt 0.815315 0.333891
vt 0.867058 0.524275
vt 0.839776 0.480046
vt 0.814983 0.413383
vt 0.884047 0.592216
vt 0.675581 0.574310
vt 0.717298 0.008953
vt 0.008832 0.815076
vt 0.146811 0.941591
vt 0.555271 0.786685
vt 0.771656 0.745789
vt 0.091418 0.815076
vt 0.499004 0.827740
vt 0.374387 0.982173
vt 0.938106 0.150551
vt 0.229253 0.943348
vt 0.788625 0.078895
vt 0.787750 0.104191
vt 0.765049 0.103931
vt 0.782477 0.123684
vt 0.782903 0.280493
vt 0.765367 0.280512
vt 0.782898 0.048660
vt 0.762458 0.008953
vt 0.774070 0.027900
vt 0.749517 0.027900
vt 0.761129 0.008953
vt 0.740689 0.048660
vt 0.741110 0.123684
vt 0.735837 0.104191
vt 0.758220 0.280512
vt 0.740684 0.280493
vt 0.762882 0.102335
vt 0.811985 0.115245
vt 0.807100 0.097185
vt 0.828130 0.096945
vt 0.806289 0.073750
vt 0.811594 0.045740
vt 0.850699 0.045740
vt 0.819773 0.026506
vt 0.830531 0.008953
vt 0.831762 0.008953
vt 0.842520 0.026506
vt 0.855194 0.097185
vt 0.834163 0.096945
vt 0.850309 0.115245
vt 0.850704 0.260520
vt 0.834458 0.260537
vt 0.827836 0.260537
vt 0.811590 0.260520
vt 0.938106 0.132645
vt 0.356723 0.982781
vt 0.989702 0.416505
vt 0.651341 0.909220
vt 0.129147 0.797170
vt 0.988720 0.962507
vt 0.970218 0.714755
vt 0.791973 0.867385
vt 0.555271 0.767842
vt 0.987963 0.592216
vt 0.161286 0.370897
vt 0.008965 0.370897
vn -0.0000 0.0000 1.0000
vn 0.0000 0.0000 -1.0000
vn 0.5421 0.6100 0.5779
vn 1.0000 0.0000 0.0000
vn -0.7205 -0.5893 0.3655
vn -1.0000 0.0000 -0.0000
vn 0.7205 -0.5893 0.3655
vn 0.0000 -0.9441 0.3296
vn 0.0183 -0.9786 0.2051
vn -0.0183 -0.9786 0.2051
vn -0.9701 0.0216 0.2416
vn 0.9701 0.0216 0.2416
vn -0.9617 -0.0053 0.2740
vn 0.9617 -0.0053 0.2740
vn -0.8774 -0.4089 0.2510
vn 0.8774 -0.4089 0.2510
vn -0.5421 0.6100 0.5779
vn -0.8197 0.5149 0.2508
vn -1.0000 0.0000 -0.0057
vn 1.0000 0.0000 -0.0057
vn 0.5663 -0.7408 0.3612
vn -0.5663 -0.7408 0.3612
vn 0.9756 -0.0090 0.2196
vn -0.9756 -0.0090 0.2196
vn 0.9759 0.0020 0.2183
vn -0.9759 0.0020 0.2183
vn 0.6991 0.6947 0.1691
vn -0.6991 0.6947 0.1691
vn 0.9929 0.0075 0.1189
vn -0.9929 0.0075 0.1189
vn 0.8197 0.5149 0.2508
vn 0.9095 0.3921 0.1382
vn -0.9770 0.1876 0.1010
vn 0.8371 0.5201 0.1695
vn 0.9622 -0.2638 0.0670
vn -0.9095 0.3921 0.1382
vn -0.0000 0.9517 0.3070
vn 0.0009 -0.8958 0.4444
vn -0.8371 0.5201 0.1694
vn -0.9622 -0.2638 0.0669
vn -0.9999 -0.0018 -0.0101
vn 0.6418 -0.7661 -0.0341
vn -0.0009 -0.8958 0.4444
vn 0.9980 0.0027 0.0631
vn -0.5873 -0.8086 -0.0352
vn 0.9999 -0.0018 -0.0100
vn 0.9964 -0.0349 0.0778
vn 0.0000 -0.9992 -0.0410
vn -0.9980 0.0027 0.0630
vn 0.9770 0.1876 0.1011
vn -0.9964 -0.0349 0.0777
vn -0.8201 0.5126 0.2544
vn -1.0000 0.0002 -0.0039
vn 1.0000 0.0002 -0.0039
vn 0.5666 -0.7398 0.3628
vn -0.5666 -0.7398 0.3628
vn 0.8201 0.5126 0.2544
s off
f 6/1/1 5/2/1 4/3/1
f 14/4/1 10/5/1 12/6/1
f 22/7/2 19/8/2 21/9/2
f 30/10/2 28/11/2 29/12/2
f 31/13/3 16/14/3 15/15/3
f 19/16/4 8/17/4 2/18/4
f 17/19/5 1/20/5 3/21/5
f 16/22/6 27/23/6 10/24/6
f 9/25/7 25/26/7 11/27/7
f 1/28/8 19/29/8 2/30/8
f 27/31/8 9/32/8 10/33/8
f 5/34/9 21/35/9 4/36/9
f 29/37/10 13/38/10 12/39/10
f 21/40/11 3/41/11 4/42/11
f 11/43/12 29/44/12 12/45/12
f 22/46/13 5/47/13 6/48/13
f 13/49/14 30/50/14 14/51/14
f 7/52/15 22/53/15 6/54/15
f 30/55/16 15/56/16 14/57/16
f 8/58/17 23/59/17 7/60/17
f 33/61/1 37/62/1 35/63/1
f 44/64/1 46/65/1 40/66/1
f 51/67/2 53/68/2 47/69/2
f 54/70/2 58/71/2 56/72/2
f 39/73/18 52/74/18 38/75/18
f 60/76/19 40/77/19 46/78/19
f 33/79/20 53/80/20 39/81/20
f 40/82/21 55/83/21 41/84/21
f 48/85/22 33/86/22 34/87/22
f 41/88/23 56/89/23 42/90/23
f 49/91/24 34/92/24 35/93/24
f 42/90/25 57/94/25 43/95/25
f 50/96/26 35/93/26 36/97/26
f 43/98/27 58/99/27 44/100/27
f 51/101/28 36/102/28 37/103/28
f 58/104/29 45/105/29 44/106/29
f 38/107/30 51/108/30 37/109/30
f 59/110/31 46/111/31 45/112/31
f 73/113/2 75/114/2 79/115/2
f 96/116/1 99/117/1 100/118/1
f 67/119/32 88/120/32 87/121/32
f 75/122/33 97/123/33 76/124/33
f 68/125/34 89/126/34 88/120/34
f 63/127/35 81/128/35 82/129/35
f 76/130/36 98/131/36 77/132/36
f 78/133/37 89/134/37 69/135/37
f 62/136/38 83/137/38 84/138/38
f 77/132/39 90/139/39 78/140/39
f 72/141/40 91/142/40 74/143/40
f 64/144/41 84/145/41 85/146/41
f 73/147/42 99/148/42 95/149/42
f 71/150/43 93/151/43 70/152/43
f 63/127/44 83/153/44 61/154/44
f 64/155/45 100/156/45 80/157/45
f 73/158/46 94/159/46 71/160/46
f 65/161/47 86/162/47 81/128/47
f 80/163/48 99/164/48 79/165/48
f 72/141/49 93/166/49 92/167/49
f 66/168/50 87/169/50 86/162/50
f 74/143/51 96/170/51 75/122/51
f 4/3/1 3/171/1 1/172/1
f 1/172/1 2/173/1 4/3/1
f 2/173/1 8/174/1 6/1/1
f 4/3/1 2/173/1 6/1/1
f 8/174/1 7/175/1 6/1/1
f 9/176/1 11/177/1 12/6/1
f 12/6/1 13/178/1 14/4/1
f 14/4/1 15/179/1 16/180/1
f 16/180/1 10/5/1 14/4/1
f 10/5/1 9/176/1 12/6/1
f 18/181/2 17/182/2 21/9/2
f 21/9/2 20/183/2 22/7/2
f 22/7/2 23/184/2 24/185/2
f 24/185/2 19/8/2 22/7/2
f 19/8/2 18/181/2 21/9/2
f 29/12/2 25/186/2 26/187/2
f 26/187/2 27/188/2 29/12/2
f 27/188/2 32/189/2 30/10/2
f 29/12/2 27/188/2 30/10/2
f 32/189/2 31/190/2 30/10/2
f 31/13/3 32/191/3 16/14/3
f 19/16/4 24/192/4 8/17/4
f 17/19/5 18/193/5 1/20/5
f 16/22/6 32/194/6 27/23/6
f 9/25/7 26/195/7 25/26/7
f 1/28/8 18/196/8 19/29/8
f 27/31/8 26/197/8 9/32/8
f 5/34/9 20/198/9 21/35/9
f 29/37/10 28/199/10 13/38/10
f 21/40/11 17/200/11 3/41/11
f 11/43/12 25/201/12 29/44/12
f 22/46/13 20/202/13 5/47/13
f 13/49/14 28/203/14 30/50/14
f 7/52/15 23/204/15 22/53/15
f 30/55/16 31/205/16 15/56/16
f 8/58/17 24/206/17 23/59/17
f 35/63/1 34/207/1 33/61/1
f 33/61/1 39/208/1 37/62/1
f 39/208/1 38/209/1 37/62/1
f 37/62/1 36/210/1 35/63/1
f 40/66/1 41/211/1 42/212/1
f 42/212/1 43/213/1 44/64/1
f 44/64/1 45/214/1 46/65/1
f 40/66/1 42/212/1 44/64/1
f 47/69/2 48/215/2 49/216/2
f 49/216/2 50/217/2 51/67/2
f 51/67/2 52/218/2 53/68/2
f 47/69/2 49/216/2 51/67/2
f 56/72/2 55/219/2 54/70/2
f 54/70/2 60/220/2 58/71/2
f 60/220/2 59/221/2 58/71/2
f 58/71/2 57/222/2 56/72/2
f 39/73/52 53/223/52 52/74/52
f 60/76/53 54/224/53 40/77/53
f 33/79/54 47/225/54 53/80/54
f 40/82/55 54/226/55 55/83/55
f 48/85/56 47/227/56 33/86/56
f 41/88/23 55/228/23 56/89/23
f 49/91/24 48/229/24 34/92/24
f 42/90/25 56/89/25 57/94/25
f 50/96/26 49/91/26 35/93/26
f 43/98/27 57/230/27 58/99/27
f 51/101/28 50/231/28 36/102/28
f 58/104/29 59/232/29 45/105/29
f 38/107/30 52/233/30 51/108/30
f 59/110/57 60/234/57 46/111/57
f 66/235/2 65/236/2 64/237/2
f 65/236/2 63/238/2 64/237/2
f 63/238/2 61/239/2 62/240/2
f 63/238/2 62/240/2 64/237/2
f 67/241/2 66/235/2 75/114/2
f 69/242/2 68/243/2 77/244/2
f 68/243/2 67/241/2 77/244/2
f 77/244/2 78/245/2 69/242/2
f 75/114/2 76/246/2 67/241/2
f 76/246/2 77/244/2 67/241/2
f 72/247/2 74/248/2 73/113/2
f 74/248/2 75/114/2 73/113/2
f 71/249/2 70/250/2 72/247/2
f 73/113/2 71/249/2 72/247/2
f 66/235/2 64/237/2 80/251/2
f 66/235/2 80/251/2 75/114/2
f 75/114/2 80/251/2 79/115/2
f 82/252/1 81/253/1 85/254/1
f 81/253/1 86/255/1 85/254/1
f 86/255/1 87/256/1 97/257/1
f 87/256/1 88/258/1 97/257/1
f 88/258/1 89/259/1 90/260/1
f 90/260/1 98/261/1 88/258/1
f 98/261/1 97/257/1 88/258/1
f 97/257/1 96/116/1 86/255/1
f 96/116/1 91/262/1 95/263/1
f 92/264/1 93/265/1 94/266/1
f 96/116/1 95/263/1 99/117/1
f 91/262/1 92/264/1 95/263/1
f 84/267/1 83/268/1 82/252/1
f 85/254/1 84/267/1 82/252/1
f 85/254/1 86/255/1 100/118/1
f 92/264/1 94/266/1 95/263/1
f 100/118/1 86/255/1 96/116/1
f 67/119/32 68/125/32 88/120/32
f 75/122/33 96/170/33 97/123/33
f 68/125/34 69/269/34 89/126/34
f 63/127/35 65/161/35 81/128/35
f 76/130/36 97/270/36 98/131/36
f 78/133/37 90/271/37 89/134/37
f 62/136/38 61/272/38 83/137/38
f 77/132/39 98/131/39 90/139/39
f 72/141/40 92/167/40 91/142/40
f 64/144/41 62/273/41 84/145/41
f 73/147/42 79/274/42 99/148/42
f 71/150/43 94/275/43 93/151/43
f 63/127/44 82/129/44 83/153/44
f 64/155/45 85/276/45 100/156/45
f 73/158/46 95/277/46 94/159/46
f 65/161/47 66/168/47 86/162/47
f 80/163/48 100/278/48 99/164/48
f 72/141/49 70/279/49 93/166/49
f 66/168/50 67/280/50 87/169/50
f 74/143/51 91/142/51 96/170/51
