# Blender v2.79 (sub 0) OBJ File: 'boss.blend'
# www.blender.org
v -0.715013 -0.173260 0.136459
v -0.862170 0.196250 0.131663
v -0.632820 -0.618815 0.137062
v -0.743296 -0.821661 0.129295
v -0.786535 -0.933831 0.125970
v -0.825350 -1.071159 0.122668
v -0.852797 -1.215769 0.119920
v -0.869908 -1.380400 0.117562
v -0.867144 -1.582638 0.115957
v -0.834151 -1.846457 0.115462
v -0.781346 -2.070425 0.116390
v -0.646467 -2.463432 0.120314
v -0.776180 -2.214155 0.115424
v -0.903596 -1.910782 0.111127
v -0.963187 -1.902611 0.107958
v -1.026301 -1.843415 0.105039
v -1.058041 -1.755949 0.104072
v -1.051607 -1.695665 0.104945
v -1.021371 -1.655764 0.106936
v -0.994813 -1.647907 0.108448
v -1.042758 -1.486394 0.107242
v -1.094921 -1.473958 0.104514
v -1.144377 -1.423963 0.102258
v -1.177807 -1.352720 0.101059
v -1.185788 -1.256978 0.101455
v -1.159586 -1.186391 0.103493
v -1.114292 -1.155899 0.106220
v -1.129045 -1.035868 0.106459
v -1.190382 -1.017766 0.103281
v -1.244107 -0.943496 0.101004
v -1.260716 -0.833574 0.101055
v -1.237392 -0.722087 0.103290
v -1.184389 -0.654065 0.106763
v -1.148275 -0.637245 0.108873
v -1.139666 -0.517654 0.110378
v -1.182290 -0.462589 0.108538
v -1.213207 -0.352682 0.107811
v -1.212153 -0.251484 0.108746
v -1.181602 -0.153968 0.111254
v -1.132286 -0.064981 0.114708
v -1.081776 -0.013777 0.117899
v -1.006804 0.009424 0.122177
v -0.938242 0.141383 0.127050
v -0.674745 -0.661323 0.239947
v -0.749136 -0.258053 0.239400
v -0.882328 0.076387 0.235060
v -0.774735 -0.844917 0.232916
v -0.813871 -0.946442 0.229907
v -0.849002 -1.070736 0.226918
v -0.873844 -1.201621 0.224432
v -0.889331 -1.350629 0.222296
v -0.886829 -1.533672 0.220844
v -0.856968 -1.772453 0.220396
v -0.809174 -1.975165 0.221236
v -0.687096 -2.330873 0.224788
v -0.804499 -2.105254 0.220362
v -0.919822 -1.830673 0.216473
v -0.973757 -1.823278 0.213604
v -1.030881 -1.769700 0.210963
v -1.059609 -1.690535 0.210088
v -1.053786 -1.635973 0.210878
v -1.026419 -1.599859 0.212679
v -1.002381 -1.592746 0.214048
v -1.045776 -1.446563 0.212957
v -1.092988 -1.435307 0.210487
v -1.137751 -1.390057 0.208446
v -1.168008 -1.325575 0.207360
v -1.175232 -1.238920 0.207719
v -1.151517 -1.175032 0.209563
v -1.110522 -1.147433 0.212031
v -1.123874 -1.038794 0.212248
v -1.179390 -1.022411 0.209371
v -1.228017 -0.955189 0.207310
v -1.243049 -0.855700 0.207356
v -1.221939 -0.754793 0.209380
v -1.173966 -0.693226 0.212523
v -1.141280 -0.678004 0.214432
v -1.133488 -0.569763 0.215795
v -1.172066 -0.519923 0.214130
v -1.200049 -0.420448 0.213471
v -1.199095 -0.328853 0.214318
v -1.171443 -0.240592 0.216587
v -1.126807 -0.160051 0.219713
v -1.081091 -0.113707 0.222602
v -1.013235 -0.092708 0.226474
v -0.951179 0.026728 0.230885
vt 0.135800 0.755459
vt 0.104183 0.752452
vt 0.074036 0.740048
vt 0.451379 0.330333
vt 0.416179 0.312559
vt 0.454977 0.267664
vt 0.820744 0.775261
vt 0.778553 0.849775
vt 0.820744 0.849775
vt 0.607603 0.785324
vt 0.514367 0.866655
vt 0.607603 0.866655
vt 0.863841 0.906341
vt 0.821650 0.888391
vt 0.821650 0.906341
vt 0.863841 0.775261
vt 0.821650 0.849775
vt 0.863841 0.849775
vt 0.659279 0.887113
vt 0.566043 0.968445
vt 0.659279 0.968445
vt 0.864747 0.775261
vt 0.906938 0.812066
vt 0.906938 0.775261
vt 0.906938 0.774355
vt 0.735456 0.737551
vt 0.735456 0.774355
vt 0.906938 0.812971
vt 0.864747 0.849775
vt 0.906938 0.849775
vt 0.950941 0.699841
vt 0.971584 0.717790
vt 0.971584 0.699841
vt 0.735456 0.775261
vt 0.777647 0.849775
vt 0.777647 0.775261
vt 0.906938 0.850681
vt 0.864747 0.887485
vt 0.906938 0.887485
vt 0.950941 0.718696
vt 0.971584 0.736646
vt 0.971584 0.718696
vt 0.865842 0.849818
vt 0.776552 0.888349
vt 0.865842 0.888349
vt 0.478543 0.503126
vt 0.432926 0.421795
vt 0.432926 0.503126
vt 0.777647 0.926101
vt 0.735456 0.944050
vt 0.777647 0.944050
vt 0.478543 0.588462
vt 0.432926 0.669793
vt 0.478543 0.669793
vt 0.692359 0.944050
vt 0.734550 0.926101
vt 0.692359 0.926101
vt 0.692359 0.699841
vt 0.734550 0.849775
vt 0.734550 0.699841
vt 0.971584 0.737551
vt 0.950941 0.755500
vt 0.971584 0.755500
vt 0.000561 0.852099
vt 0.093797 0.933430
vt 0.093797 0.852099
vt 0.430924 0.588462
vt 0.337688 0.669793
vt 0.430924 0.669793
vt 0.906938 0.699841
vt 0.735456 0.736646
vt 0.906938 0.736646
vt 0.478543 0.505128
vt 0.432926 0.586460
vt 0.478543 0.586460
vt 0.459497 0.890805
vt 0.552733 0.972136
vt 0.552733 0.890805
vt 0.950035 0.699841
vt 0.907844 0.736646
vt 0.950035 0.736646
vt 0.777647 0.850681
vt 0.692359 0.887485
vt 0.777647 0.887485
vt 0.734550 0.888391
vt 0.692359 0.925196
vt 0.734550 0.925196
vt 0.885390 0.888391
vt 0.864747 0.925196
vt 0.885390 0.925196
vt 0.907844 0.737551
vt 0.950035 0.774355
vt 0.950035 0.737551
vt 0.777647 0.888391
vt 0.735456 0.925196
vt 0.777647 0.925196
vt 0.863841 0.925196
vt 0.821650 0.907246
vt 0.821650 0.925196
vt 0.929393 0.888391
vt 0.950035 0.925196
vt 0.950035 0.888391
vt 0.208956 0.901314
vt 0.115720 0.982646
vt 0.208956 0.982646
vt 0.820744 0.944050
vt 0.778553 0.926101
vt 0.778553 0.944050
vt 0.478543 0.671795
vt 0.432926 0.753126
vt 0.478543 0.753126
vt 0.886296 0.925196
vt 0.928487 0.907246
vt 0.886296 0.907246
vt 0.778553 0.888391
vt 0.820744 0.925196
vt 0.820744 0.888391
vt 0.950035 0.775261
vt 0.907844 0.812066
vt 0.950035 0.812066
vt 0.950035 0.812971
vt 0.907844 0.849775
vt 0.950035 0.849775
vt 0.950035 0.850681
vt 0.929393 0.887485
vt 0.950035 0.887485
vt 0.493674 0.858709
vt 0.305200 0.777378
vt 0.305200 0.858709
vt 0.928487 0.887485
vt 0.907844 0.850681
vt 0.907844 0.887485
vt 0.928487 0.906341
vt 0.886296 0.888391
vt 0.886296 0.906341
vt 0.328226 0.426445
vt 0.379951 0.537700
vt 0.072829 0.513403
vt 0.314015 0.588642
vt 0.068155 0.543326
vt 0.288355 0.616777
vt 0.191752 0.348204
vt 0.237533 0.334334
vt 0.075268 0.400192
vt 0.105600 0.387288
vt 0.150858 0.381338
vt 0.265485 0.651195
vt 0.081575 0.642969
vt 0.249525 0.687411
vt 0.091038 0.672955
vt 0.045827 0.422541
vt 0.027779 0.446987
vt 0.046792 0.499718
vt 0.027594 0.472295
vt 0.239909 0.728613
vt 0.014614 0.564718
vt 0.046380 0.547603
vt 0.242487 0.779180
vt 0.053490 0.722298
vt 0.001001 0.592643
vt 0.044381 0.638563
vt 0.011542 0.620097
vt 0.263630 0.845086
vt 0.165533 0.795753
vt 0.147356 0.844705
vt 0.296583 0.900988
vt 0.379951 0.998999
vt 0.300352 0.936920
vt 0.221900 0.861309
vt 0.048232 0.698373
vt 0.063770 0.680670
vt 0.185808 0.859383
vt 0.127759 0.822895
vt 0.131382 0.807808
vt 0.149498 0.797770
vt 0.679272 0.227543
vt 0.752005 0.189413
vt 0.660933 0.371877
vt 0.857477 0.220713
vt 0.694368 0.369416
vt 0.931746 0.274647
vt 0.904354 0.301319
vt 0.857590 0.324952
vt 0.838854 0.351390
vt 0.816714 0.369027
vt 0.642035 0.242305
vt 0.598807 0.255377
vt 0.557496 0.363107
vt 0.784664 0.386056
vt 0.753468 0.396397
vt 0.726216 0.396273
vt 0.701978 0.384783
vt 0.555530 0.264387
vt 0.527848 0.357292
vt 0.508624 0.269637
vt 0.650398 0.384585
vt 0.623341 0.403022
vt 0.589615 0.410735
vt 0.562981 0.404312
vt 0.552089 0.384920
vt 0.389907 0.254683
vt 0.464574 0.378819
vt 0.358609 0.322750
vt 0.301217 0.232344
vt 0.256201 0.185180
vt 0.338809 0.234880
vt 0.361091 0.278962
vt 0.353319 0.300106
vt 0.512120 0.373184
vt 0.488856 0.382117
vt 0.451100 0.366630
vt 0.376706 0.334421
vt 0.409638 0.321926
vt 0.393910 0.332439
vt 0.445989 0.348868
vt 0.778553 0.775261
vt 0.514367 0.785324
vt 0.863841 0.888391
vt 0.821650 0.775261
vt 0.566043 0.887113
vt 0.864747 0.812066
vt 0.906938 0.737551
vt 0.864747 0.812971
vt 0.950941 0.717790
vt 0.735456 0.849775
vt 0.864747 0.850681
vt 0.950941 0.736646
vt 0.776552 0.849818
vt 0.478543 0.421795
vt 0.735456 0.926101
vt 0.432926 0.588462
vt 0.734550 0.944050
vt 0.692359 0.849775
vt 0.950941 0.737551
vt 0.000561 0.933430
vt 0.337688 0.588462
vt 0.735456 0.699841
vt 0.432926 0.505128
vt 0.459497 0.972136
vt 0.907844 0.699841
vt 0.692359 0.850681
vt 0.692359 0.888391
vt 0.864747 0.888391
vt 0.907844 0.774355
vt 0.735456 0.888391
vt 0.863841 0.907246
vt 0.929393 0.925196
vt 0.115720 0.901314
vt 0.820744 0.926101
vt 0.432926 0.671795
vt 0.928487 0.925196
vt 0.778553 0.925196
vt 0.907844 0.775261
vt 0.907844 0.812971
vt 0.929393 0.850681
vt 0.493674 0.777378
vt 0.928487 0.850681
vt 0.928487 0.888391
vn 0.0543 0.0087 -0.9985
vn -0.0543 -0.0087 0.9985
vn 0.9842 0.1228 0.1274
vn -0.9611 -0.2707 -0.0539
vn -0.8904 -0.4146 0.1880
vn 0.9721 0.2294 0.0496
vn -0.9916 0.0091 0.1293
vn -0.9902 -0.0830 0.1125
vn 0.9451 0.3239 -0.0435
vn -0.9080 0.2764 0.3149
vn -0.9373 0.3469 0.0342
vn -0.8653 -0.4458 0.2291
vn -0.7979 0.4256 0.4270
vn -0.5559 0.8299 -0.0466
vn -0.9124 -0.3811 0.1493
vn -0.6123 0.5699 0.5479
vn -0.9915 -0.1219 0.0451
vn -0.1406 -0.7984 0.5855
vn -0.2544 0.6988 0.6686
vn 0.8879 0.1644 0.4297
vn -0.2824 -0.9592 -0.0127
vn -0.6295 -0.6502 0.4253
vn -0.8334 0.4197 0.3596
vn 0.7881 0.3207 0.5254
vn -0.8097 -0.5839 0.0583
vn -0.9233 -0.3329 0.1918
vn -0.4828 0.6172 0.6213
vn 0.8650 -0.4771 0.1554
vn -0.9801 -0.1482 0.1321
vn -0.9910 0.1069 -0.0806
vn 0.9129 -0.3577 0.1967
vn -0.9597 0.1968 0.2005
vn -0.7409 0.5785 -0.3412
vn 0.9386 -0.2704 0.2141
vn -0.7621 0.5791 0.2895
vn -0.2270 0.8565 -0.4636
vn 0.9580 -0.1860 0.2181
vn -0.4120 0.8405 0.3518
vn -0.9558 -0.2831 0.0794
vn 0.9722 -0.1040 0.2099
vn -0.9932 0.0703 0.0930
vn -0.2350 -0.9118 0.3368
vn 0.9838 0.0120 0.1790
vn -0.7614 -0.5978 -0.2509
vn -0.6926 -0.6735 0.2583
vn -0.9915 -0.1220 0.0451
vn -0.9801 -0.1481 0.1321
s off
f 21/1/1 22/2/1 23/3/1
f 64/4/2 63/5/2 52/6/2
f 9/7/3 53/8/3 10/9/3
f 36/10/4 80/11/4 37/12/4
f 66/13/5 24/14/5 23/15/5
f 10/16/6 54/17/6 11/18/6
f 37/19/7 81/20/7 38/21/7
f 67/22/8 25/23/8 24/24/8
f 11/25/9 55/26/9 12/27/9
f 38/28/10 82/29/10 39/30/10
f 68/31/11 26/32/11 25/33/11
f 55/34/12 13/35/12 12/36/12
f 39/37/13 83/38/13 40/39/13
f 69/40/14 27/41/14 26/42/14
f 56/43/15 14/44/15 13/45/15
f 40/46/16 84/47/16 41/48/16
f 70/49/17 28/50/17 27/51/17
f 57/52/18 15/53/18 14/54/18
f 41/55/19 85/56/19 42/57/19
f 45/58/20 3/59/20 1/60/20
f 28/61/21 72/62/21 29/63/21
f 58/64/22 16/65/22 15/66/22
f 42/67/23 86/68/23 43/69/23
f 46/70/24 1/71/24 2/72/24
f 29/73/25 73/74/25 30/75/25
f 59/76/26 17/77/26 16/78/26
f 43/79/27 46/80/27 2/81/27
f 44/82/28 4/83/28 3/84/28
f 30/85/29 74/86/29 31/87/29
f 60/88/30 18/89/30 17/90/30
f 47/91/31 5/92/31 4/93/31
f 31/94/32 75/95/32 32/96/32
f 61/97/33 19/98/33 18/99/33
f 48/100/34 6/101/34 5/102/34
f 32/103/35 76/104/35 33/105/35
f 62/106/36 20/107/36 19/108/36
f 6/109/37 50/110/37 7/111/37
f 33/112/38 77/113/38 34/114/38
f 63/115/39 21/116/39 20/117/39
f 7/118/40 51/119/40 8/120/40
f 34/121/41 78/122/41 35/123/41
f 64/124/42 22/125/42 21/126/42
f 8/127/43 52/128/43 9/129/43
f 35/130/44 79/131/44 36/132/44
f 65/133/45 23/134/45 22/135/45
f 1/136/1 3/137/1 35/138/1
f 3/137/1 4/139/1 34/140/1
f 35/138/1 3/137/1 34/140/1
f 4/139/1 5/141/1 34/140/1
f 43/142/1 2/143/1 1/136/1
f 40/144/1 41/145/1 42/146/1
f 42/146/1 43/142/1 1/136/1
f 5/141/1 6/147/1 28/148/1
f 6/147/1 7/149/1 27/150/1
f 40/144/1 42/146/1 39/151/1
f 42/146/1 1/136/1 39/151/1
f 38/152/1 39/151/1 1/136/1
f 36/153/1 37/154/1 35/138/1
f 37/154/1 38/152/1 1/136/1
f 35/138/1 37/154/1 1/136/1
f 34/140/1 5/141/1 28/148/1
f 7/149/1 8/155/1 27/150/1
f 32/156/1 33/157/1 34/140/1
f 28/148/1 6/147/1 27/150/1
f 8/155/1 9/158/1 21/1/1
f 27/150/1 8/155/1 24/159/1
f 31/160/1 32/156/1 34/140/1
f 29/161/1 30/162/1 28/148/1
f 30/162/1 31/160/1 28/148/1
f 9/158/1 10/163/1 20/164/1
f 20/164/1 10/163/1 16/165/1
f 11/166/1 12/167/1 13/168/1
f 10/163/1 11/166/1 14/169/1
f 28/148/1 31/160/1 34/140/1
f 25/170/1 26/171/1 27/150/1
f 10/163/1 14/169/1 15/172/1
f 11/166/1 13/168/1 14/169/1
f 15/172/1 16/165/1 10/163/1
f 8/155/1 21/1/1 23/3/1
f 24/159/1 25/170/1 27/150/1
f 21/1/1 9/158/1 20/164/1
f 16/165/1 17/173/1 20/164/1
f 17/173/1 18/174/1 20/164/1
f 18/174/1 19/175/1 20/164/1
f 23/3/1 24/159/1 8/155/1
f 47/176/2 44/177/2 77/178/2
f 44/177/2 45/179/2 78/180/2
f 45/179/2 46/181/2 86/182/2
f 85/183/2 84/184/2 83/185/2
f 45/179/2 86/182/2 85/183/2
f 48/186/2 47/176/2 77/178/2
f 44/177/2 78/180/2 77/178/2
f 49/187/2 48/186/2 71/188/2
f 45/179/2 85/183/2 82/189/2
f 85/183/2 83/185/2 82/189/2
f 82/189/2 81/190/2 45/179/2
f 81/190/2 80/191/2 45/179/2
f 80/191/2 79/192/2 78/180/2
f 80/191/2 78/180/2 45/179/2
f 50/193/2 49/187/2 70/194/2
f 48/186/2 77/178/2 71/188/2
f 51/195/2 50/193/2 70/194/2
f 77/178/2 76/196/2 75/197/2
f 49/187/2 71/188/2 70/194/2
f 52/6/2 51/195/2 64/4/2
f 77/178/2 75/197/2 74/198/2
f 74/198/2 73/199/2 71/188/2
f 73/199/2 72/200/2 71/188/2
f 53/201/2 52/6/2 63/5/2
f 51/195/2 70/194/2 67/202/2
f 53/201/2 63/5/2 59/203/2
f 56/204/2 55/205/2 54/206/2
f 54/206/2 53/201/2 57/207/2
f 57/207/2 53/201/2 58/208/2
f 77/178/2 74/198/2 71/188/2
f 70/194/2 69/209/2 68/210/2
f 56/204/2 54/206/2 57/207/2
f 59/203/2 58/208/2 53/201/2
f 64/4/2 51/195/2 66/211/2
f 70/194/2 68/210/2 67/202/2
f 60/212/2 59/203/2 63/5/2
f 62/213/2 61/214/2 63/5/2
f 61/214/2 60/212/2 63/5/2
f 67/202/2 66/211/2 51/195/2
f 66/211/2 65/215/2 64/4/2
f 9/7/3 52/216/3 53/8/3
f 36/10/4 79/217/4 80/11/4
f 66/13/5 67/218/5 24/14/5
f 10/16/6 53/219/6 54/17/6
f 37/19/7 80/220/7 81/20/7
f 67/22/8 68/221/8 25/23/8
f 11/25/9 54/222/9 55/26/9
f 38/28/10 81/223/10 82/29/10
f 68/31/11 69/224/11 26/32/11
f 55/34/12 56/225/12 13/35/12
f 39/37/13 82/226/13 83/38/13
f 69/40/14 70/227/14 27/41/14
f 56/43/15 57/228/15 14/44/15
f 40/46/16 83/229/16 84/47/16
f 70/49/46 71/230/46 28/50/46
f 57/52/18 58/231/18 15/53/18
f 41/55/19 84/232/19 85/56/19
f 45/58/20 44/233/20 3/59/20
f 28/61/21 71/234/21 72/62/21
f 58/64/22 59/235/22 16/65/22
f 42/67/23 85/236/23 86/68/23
f 46/70/24 45/237/24 1/71/24
f 29/73/25 72/238/25 73/74/25
f 59/76/26 60/239/26 17/77/26
f 43/79/27 86/240/27 46/80/27
f 44/82/28 47/241/28 4/83/28
f 30/85/47 73/242/47 74/86/47
f 60/88/30 61/243/30 18/89/30
f 47/91/31 48/244/31 5/92/31
f 31/94/32 74/245/32 75/95/32
f 61/97/33 62/246/33 19/98/33
f 48/100/34 49/247/34 6/101/34
f 32/103/35 75/248/35 76/104/35
f 62/106/36 63/249/36 20/107/36
f 6/109/37 49/250/37 50/110/37
f 33/112/38 76/251/38 77/113/38
f 63/115/39 64/252/39 21/116/39
f 7/118/40 50/253/40 51/119/40
f 34/121/41 77/254/41 78/122/41
f 64/124/42 65/255/42 22/125/42
f 8/127/43 51/256/43 52/128/43
f 35/130/44 78/257/44 79/131/44
f 65/133/45 66/258/45 23/134/45
