# Blender v2.79 (sub 0) OBJ File: ''
# www.blender.org
v -1.218108 -0.088745 1.524106
v -1.218108 -0.089744 1.373339
v 0.003037 -0.089744 1.373339
v 0.003037 -0.088745 1.524106
v -1.450101 -0.094016 0.728588
v -1.286001 -0.094016 0.728588
v -1.286001 -0.090282 1.292119
v -1.450101 -0.090282 1.292119
v -1.409830 -0.090015 1.332389
v -1.256771 -0.089001 1.485444
v 1.224182 -0.088745 1.524106
v 1.224182 -0.089744 1.373339
v 1.456175 -0.094016 0.728588
v 1.456175 -0.090282 1.292119
v 1.292076 -0.090282 1.292119
v 1.292076 -0.094016 0.728588
v 1.415904 -0.090015 1.332389
v 1.262846 -0.089001 1.485444
v -1.218108 -0.099287 -0.066929
v 0.003037 -0.099287 -0.066929
v 0.003037 -0.098288 0.083838
v -1.218108 -0.098288 0.083838
v -1.450101 -0.097749 0.165058
v -1.286001 -0.097749 0.165058
v -1.409830 -0.098017 0.124788
v -1.256771 -0.099031 -0.028267
v 1.224182 -0.099287 -0.066929
v 1.224182 -0.098288 0.083838
v 1.292076 -0.097749 0.165058
v 1.456175 -0.097749 0.165058
v 1.415904 -0.098017 0.124788
v 1.262846 -0.099031 -0.028267
v 0.003037 0.033206 1.372525
v -1.218108 0.033206 1.372525
v -1.286001 0.032669 1.291304
v -1.286001 0.028934 0.727774
v -1.286001 0.025201 0.164243
v -1.218108 0.024663 0.083023
v 0.003037 0.024663 0.083023
v 1.224182 0.024663 0.083023
v 1.292076 0.025201 0.164243
v 1.292076 0.028934 0.727774
v 1.292076 0.032669 1.291304
v 1.224182 0.033206 1.372525
v -1.218108 0.023664 -0.067744
v 0.003037 0.023664 -0.067744
v 1.456175 0.032669 1.291304
v 1.415904 0.032935 1.331575
v -1.409830 0.024934 0.123973
v -1.256771 0.023920 -0.029082
v 1.456175 0.028934 0.727774
v -1.409830 0.032935 1.331575
v -1.450101 0.032669 1.291304
v 1.224182 0.034205 1.523292
v 0.003037 0.034205 1.523292
v -1.450101 0.028934 0.727774
v 1.262846 0.033949 1.484629
v -1.218108 0.034205 1.523292
v -1.256771 0.033949 1.484629
v 1.415904 0.024934 0.123973
v 1.456175 0.025201 0.164243
v 1.224182 0.023664 -0.067744
v -1.450101 0.025201 0.164243
v 1.262846 0.023920 -0.029082
v -1.290938 0.151319 1.279979
v -1.327821 0.151074 1.243098
v 1.333895 0.151074 1.243098
v 1.297013 0.151319 1.279979
v -1.327821 0.147655 0.726987
v -1.327821 0.144235 0.210877
v -1.290938 0.143991 0.173995
v 1.333895 0.147655 0.726987
v 1.297013 0.143991 0.173995
v 1.333895 0.144235 0.210877
v 0.003037 0.152482 1.455564
v -1.115350 0.152482 1.455564
v 1.121425 0.152482 1.455564
v -1.150760 0.152247 1.420155
v -1.115350 0.142827 -0.001589
v 0.003037 0.142827 -0.001589
v 1.156835 0.152247 1.420155
v 1.121425 0.142827 -0.001589
v -1.150760 0.143062 0.033820
v 1.156835 0.143062 0.033820
v -0.836445 0.271877 0.400596
v -0.702423 0.277079 1.185723
v -0.836445 0.276191 1.051703
v 0.708497 0.270989 0.266576
v 0.842520 0.271877 0.400596
v -0.836445 0.274034 0.726150
v -0.702423 0.270989 0.266576
v 0.003037 0.270989 0.266576
v 0.842520 0.276191 1.051703
v 0.842520 0.274034 0.726150
v 0.708497 0.277079 1.185723
v 0.003037 0.277079 1.185723
v 0.636669 0.274034 0.726150
v 0.636669 0.272442 0.485861
v 0.577953 0.325799 0.507775
v 0.577953 0.327244 0.725797
v -0.630595 0.275626 0.966439
v -0.630595 0.274034 0.726150
v 0.003037 0.275715 0.979877
v -0.617156 0.275715 0.979877
v 0.636669 0.275626 0.966439
v 0.623231 0.275715 0.979877
v -0.630595 0.272442 0.485861
v -0.617156 0.272353 0.472422
v 0.003037 0.272353 0.472422
v 0.623231 0.272353 0.472422
v 0.442221 0.326680 0.640656
v 0.003037 0.326618 0.631341
v 0.014292 0.304146 0.639197
v 0.453476 0.304208 0.648511
v -0.571878 0.327244 0.725797
v -0.571878 0.325799 0.507775
v 0.577953 0.328689 0.943820
v 0.003037 0.325719 0.495582
v -0.571878 0.328689 0.943820
v 0.003037 0.328769 0.956012
v 0.003037 0.327869 0.820253
v -0.436146 0.327808 0.810939
v 0.442221 0.327244 0.725797
v 0.442221 0.327808 0.810939
v -0.436146 0.327244 0.725797
v -0.436146 0.326680 0.640656
v -0.424891 0.305336 0.818794
v 0.014292 0.305398 0.828109
v 0.453476 0.305336 0.818794
v 0.453476 0.304772 0.733653
v -0.424891 0.304208 0.648511
v -0.424891 0.304772 0.733653
vt 0.348599 0.360184
vt 0.364938 0.492519
vt 0.364938 0.360184
vt 0.278726 0.352826
vt 0.339797 0.335043
vt 0.278726 0.335043
vt 0.360749 0.355994
vt 0.344162 0.339407
vt 0.348599 0.624854
vt 0.364938 0.624854
vt 0.339797 0.649995
vt 0.278726 0.632212
vt 0.278726 0.649995
vt 0.339797 0.632212
vt 0.344162 0.645631
vt 0.192514 0.492519
vt 0.208853 0.360184
vt 0.192514 0.360184
vt 0.217655 0.335043
vt 0.217655 0.352826
vt 0.213291 0.339407
vt 0.208853 0.624854
vt 0.192514 0.624854
vt 0.217655 0.649995
vt 0.196704 0.629044
vt 0.518078 0.474735
vt 0.378332 0.474735
vt 0.448205 0.614428
vt 0.806571 0.296509
vt 0.819767 0.164173
vt 0.806571 0.164173
vt 0.846908 0.150628
vt 0.860742 0.146264
vt 0.847574 0.146264
vt 0.911934 0.367662
vt 0.925258 0.276194
vt 0.911934 0.276194
vt 0.807152 0.300699
vt 0.822648 0.317285
vt 0.820348 0.300699
vt 0.846908 0.211699
vt 0.860076 0.150628
vt 0.806571 0.423313
vt 0.819895 0.429483
vt 0.819895 0.423313
vt 0.819767 0.296509
vt 0.806571 0.641794
vt 0.819895 0.550326
vt 0.806571 0.550326
vt 0.911934 0.423243
vt 0.925258 0.379108
vt 0.911934 0.379108
vt 0.806571 0.379178
vt 0.819895 0.379178
vt 0.925258 0.184726
vt 0.911934 0.184726
vt 0.863274 0.129677
vt 0.850105 0.129677
vt 0.819895 0.458858
vt 0.806571 0.458858
vt 0.850745 0.125487
vt 0.863913 0.125487
vt 0.925258 0.367662
vt 0.806571 0.429483
vt 0.819895 0.452935
vt 0.515006 0.760215
vt 0.501217 0.892490
vt 0.514412 0.892549
vt 0.806571 0.452935
vt 0.202015 0.947491
vt 0.215183 0.886420
vt 0.202015 0.886420
vt 0.515600 0.627881
vt 0.501810 0.760156
vt 0.925258 0.467378
vt 0.925258 0.423243
vt 0.200892 0.956293
vt 0.215183 0.947491
vt 0.809452 0.011061
vt 0.823253 0.006697
vt 0.810057 0.006697
vt 0.215183 0.825349
vt 0.202015 0.825349
vt 0.846908 0.272770
vt 0.860076 0.211699
vt 0.515600 0.899912
vt 0.502404 0.899853
vt 0.819767 0.031838
vt 0.806571 0.031838
vt 0.809452 0.317285
vt 0.823253 0.321649
vt 0.807152 0.027648
vt 0.822648 0.011061
vt 0.819895 0.335043
vt 0.806571 0.335043
vt 0.214060 0.816547
vt 0.200892 0.816547
vt 0.820348 0.027648
vt 0.158344 0.317285
vt 0.148841 0.308398
vt 0.153980 0.321649
vt 0.158344 0.011061
vt 0.148841 0.019948
vt 0.152838 0.023945
vt 0.092909 0.321649
vt 0.092909 0.308398
vt 0.027474 0.317285
vt 0.036977 0.308398
vt 0.032980 0.304401
vt 0.874814 0.155767
vt 0.027474 0.011061
vt 0.036977 0.019948
vt 0.031838 0.006697
vt 0.832761 0.461313
vt 0.031838 0.321649
vt 0.832761 0.628854
vt 0.832761 0.545083
vt 0.874814 0.267631
vt 0.874814 0.211699
vt 0.174931 0.300698
vt 0.152838 0.304401
vt 0.833514 0.285373
vt 0.833514 0.164173
vt 0.174931 0.027648
vt 0.168029 0.039136
vt 0.833514 0.042974
vt 0.179121 0.296508
vt 0.168029 0.289210
vt 0.010887 0.300698
vt 0.017789 0.289210
vt 0.179121 0.031838
vt 0.171866 0.042974
vt 0.010887 0.027648
vt 0.032980 0.023945
vt 0.006697 0.296508
vt 0.013951 0.285372
vt 0.006697 0.031838
vt 0.017789 0.039136
vt 0.057628 0.255147
vt 0.128190 0.255147
vt 0.057628 0.073199
vt 0.171866 0.285372
vt 0.142714 0.240623
vt 0.013951 0.042974
vt 0.043104 0.087723
vt 0.013951 0.164173
vt 0.043104 0.240623
vt 0.043104 0.164173
vt 0.128190 0.073199
vt 0.092909 0.019948
vt 0.171866 0.164173
vt 0.142714 0.087723
vt 0.142714 0.164173
vt 0.092909 0.255147
vt 0.092909 0.073199
vt 0.631581 0.909899
vt 0.638251 0.933527
vt 0.638251 0.909899
vt 0.118949 0.232840
vt 0.120406 0.231383
vt 0.120406 0.164173
vt 0.118949 0.095506
vt 0.092909 0.095506
vt 0.120406 0.096963
vt 0.066868 0.232840
vt 0.092909 0.232840
vt 0.065412 0.231383
vt 0.066868 0.095506
vt 0.065412 0.096963
vt 0.065412 0.164173
vt 0.947338 0.072489
vt 0.944897 0.040310
vt 0.944897 0.073936
vt 0.069281 0.226476
vt 0.638251 0.886271
vt 0.631581 0.883858
vt 0.475538 0.856287
vt 0.481786 0.793983
vt 0.475538 0.789076
vt 0.116536 0.226476
vt 0.092909 0.226476
vt 0.481786 0.918590
vt 0.481602 0.856287
vt 0.925737 0.053151
vt 0.931503 0.093418
vt 0.931503 0.051310
vt 0.069281 0.101870
vt 0.931503 0.007292
vt 0.925737 0.006697
vt 0.116536 0.101870
vt 0.102136 0.211767
vt 0.117858 0.164173
vt 0.103145 0.164173
vt 0.102136 0.116579
vt 0.092909 0.101870
vt 0.092909 0.116579
vt 0.083682 0.211767
vt 0.092909 0.211767
vt 0.083682 0.116579
vt 0.067960 0.164173
vt 0.082672 0.164173
vt 0.101414 0.864154
vt 0.091178 0.816560
vt 0.080941 0.864154
vt 0.228716 0.911735
vt 0.230878 0.865361
vt 0.228576 0.864141
vt 0.947338 0.079157
vt 0.944897 0.080604
vt 0.947338 0.085826
vt 0.944897 0.087272
vt 0.947338 0.038864
vt 0.944897 0.008143
vt 0.972543 0.371098
vt 0.975141 0.362706
vt 0.972543 0.361871
vt 0.975141 0.353479
vt 0.972543 0.352644
vt 0.231018 0.817766
vt 0.228716 0.816547
vt 0.348599 0.492519
vt 0.339797 0.352826
vt 0.360748 0.629044
vt 0.208853 0.492519
vt 0.196704 0.355994
vt 0.217655 0.632212
vt 0.213291 0.645631
vt 0.518078 0.607071
vt 0.518078 0.342400
vt 0.448205 0.335043
vt 0.509276 0.335043
vt 0.387134 0.335043
vt 0.378332 0.342400
vt 0.378332 0.607071
vt 0.387134 0.614428
vt 0.509276 0.614428
vt 0.819895 0.641794
vt 0.502404 0.627822
vt 0.911934 0.467378
vt 0.214060 0.956293
vt 0.860076 0.272770
vt 0.810057 0.321649
vt 0.153980 0.006697
vt 0.631581 0.935940
vt 0.475538 0.923497
vt 0.925737 0.099606
vt 0.091178 0.911748
vt 0.100405 0.911748
vt 0.100405 0.816560
vt 0.081951 0.816560
vt 0.081951 0.911748
vt 0.231018 0.912955
vt 0.947338 0.006697
vt 0.975141 0.371933
vn 0.0000 -1.0000 0.0066
vn 0.0000 -0.0066 -1.0000
vn 0.7071 0.0047 0.7071
vn 0.0000 0.0066 1.0000
vn -0.7071 -0.0047 -0.7071
vn 1.0000 0.0000 0.0000
vn -0.7071 0.0047 0.7071
vn -1.0000 -0.0000 0.0000
vn -0.7673 0.0042 0.6413
vn 0.7673 0.0042 0.6413
vn 0.7071 -0.0047 -0.7071
vn -0.7673 -0.0042 -0.6413
vn 0.7673 -0.0042 -0.6413
vn -0.4973 0.7141 0.4926
vn 0.4973 0.7142 0.4926
vn -0.6966 0.7174 -0.0048
vn -0.4973 0.7076 -0.5020
vn 0.6966 0.7174 -0.0048
vn 0.4973 0.7076 -0.5020
vn 0.0000 0.4969 0.8678
vn -0.4973 0.7142 0.4926
vn 0.0000 0.4854 -0.8743
vn 0.4973 0.7141 0.4926
vn -0.1793 0.9661 -0.1857
vn -0.1793 0.9685 0.1729
vn 0.1793 0.9661 -0.1857
vn -0.2491 0.9685 -0.0064
vn 0.0000 0.9023 -0.4312
vn 0.1793 0.9685 0.1729
vn 0.2491 0.9685 -0.0064
vn 0.0000 0.9079 0.4192
vn 0.6715 0.7410 -0.0049
vn 0.0000 1.0000 -0.0066
vn -0.0201 0.3209 0.9469
vn -0.6715 0.7410 -0.0049
vn 0.0000 0.5517 -0.8341
vn -0.0194 0.3980 -0.9172
vn 0.0194 0.4101 0.9118
vn 0.4813 0.7294 -0.4862
vn 0.0000 0.5627 0.8267
vn -0.4813 0.7294 -0.4862
vn 0.4813 0.7357 0.4765
vn -0.4813 0.7357 0.4765
vn -0.0200 -0.3388 -0.9406
vn -0.8945 -0.4470 0.0030
vn 0.0200 0.3388 0.9406
vn 0.8945 0.4470 -0.0030
vn 0.0201 -0.3209 -0.9469
vn 0.7673 0.0043 0.6413
vn 0.0194 0.3980 -0.9172
vn -0.0194 0.4101 0.9118
s off
f 2/1/1 4/2/1 1/3/1
f 6/4/1 8/5/1 5/6/1
f 10/7/1 9/8/1 2/1/1
f 4/2/1 12/9/1 11/10/1
f 14/11/1 16/12/1 13/13/1
f 12/9/1 15/14/1 17/15/1
f 20/16/1 22/17/1 19/18/1
f 23/19/1 6/4/1 5/6/1
f 22/17/1 24/20/1 25/21/1
f 28/22/1 20/16/1 27/23/1
f 16/12/1 30/24/1 13/13/1
f 28/22/1 27/23/1 32/25/1
f 33/26/1 39/27/1 42/28/1
f 19/29/2 46/30/2 20/31/2
f 14/32/3 48/33/3 17/34/3
f 28/35/4 39/36/4 21/37/4
f 26/38/5 49/39/5 50/40/5
f 13/41/6 47/42/6 14/32/6
f 8/43/7 52/44/7 53/45/7
f 19/29/5 50/40/5 45/46/5
f 11/47/4 55/48/4 4/49/4
f 16/50/8 41/51/8 29/52/8
f 5/53/8 53/45/8 56/54/8
f 21/37/4 38/55/4 22/56/4
f 17/34/3 57/57/3 18/58/3
f 4/49/4 58/59/4 1/60/4
f 11/61/3 57/57/3 54/62/3
f 28/35/9 41/51/9 40/63/9
f 9/64/7 59/65/7 52/44/7
f 3/66/2 44/67/2 12/68/2
f 1/60/7 59/65/7 10/69/7
f 24/70/6 36/71/6 6/72/6
f 2/73/2 33/74/2 3/66/2
f 16/50/8 43/75/8 42/76/8
f 22/77/10 37/78/10 24/70/10
f 31/79/11 61/80/11 30/81/11
f 6/72/6 35/82/6 7/83/6
f 30/84/6 51/85/6 13/41/6
f 15/86/12 44/67/12 43/87/12
f 20/31/2 62/88/2 27/89/2
f 25/90/5 63/91/5 49/39/5
f 32/92/11 60/93/11 31/79/11
f 5/53/8 63/94/8 23/95/8
f 7/83/13 34/96/13 2/97/13
f 27/89/11 64/98/11 32/92/11
f 52/99/14 66/100/14 53/101/14
f 48/102/15 67/103/15 68/104/15
f 56/105/16 66/100/16 69/106/16
f 49/107/17 70/108/17 71/109/17
f 51/85/18 67/110/18 47/42/18
f 60/111/19 74/112/19 61/113/19
f 55/48/20 76/114/20 58/59/20
f 56/105/16 70/108/16 63/115/16
f 55/48/20 77/116/20 75/117/20
f 51/85/18 74/118/18 72/119/18
f 59/120/21 65/121/21 52/99/21
f 46/30/22 79/122/22 80/123/22
f 57/124/23 68/104/23 81/125/23
f 46/30/22 82/126/22 62/88/22
f 58/127/14 78/128/14 59/120/14
f 50/129/17 71/109/17 83/130/17
f 54/131/23 81/125/23 77/132/23
f 64/133/19 73/134/19 60/111/19
f 45/135/17 83/130/17 79/136/17
f 62/137/19 84/138/19 64/133/19
f 71/109/24 70/108/24 85/139/24
f 78/128/25 87/140/25 65/121/25
f 84/138/26 89/141/26 73/134/26
f 69/106/27 85/139/27 70/108/27
f 78/128/25 76/142/25 86/143/25
f 84/138/26 82/144/26 88/145/26
f 80/146/28 91/147/28 92/148/28
f 68/104/29 67/103/29 93/149/29
f 83/130/24 85/139/24 91/147/24
f 72/150/30 93/149/30 67/103/30
f 79/136/24 83/130/24 91/147/24
f 75/151/31 95/152/31 96/153/31
f 66/100/25 65/121/25 87/140/25
f 74/112/26 73/134/26 89/141/26
f 81/125/29 93/149/29 95/152/29
f 69/106/27 87/140/27 90/154/27
f 72/150/30 89/141/30 94/155/30
f 77/132/29 81/125/29 95/152/29
f 75/151/31 86/143/31 76/142/31
f 80/146/28 88/145/28 82/144/28
f 97/156/32 99/157/32 100/158/32
f 101/159/33 90/154/33 87/140/33
f 104/160/33 96/153/33 103/161/33
f 101/159/33 86/143/33 104/160/33
f 105/162/33 94/155/33 97/163/33
f 106/164/33 96/153/33 95/152/33
f 106/164/33 93/149/33 105/162/33
f 107/165/33 90/154/33 102/166/33
f 108/167/33 92/148/33 91/147/33
f 107/165/33 91/147/33 85/139/33
f 98/168/33 94/155/33 89/141/33
f 110/169/33 92/148/33 109/170/33
f 110/169/33 89/141/33 88/145/33
f 111/171/34 113/172/34 114/173/34
f 102/166/35 116/174/35 107/165/35
f 97/156/32 117/175/32 105/176/32
f 109/177/36 99/178/36 110/179/36
f 102/166/35 119/180/35 115/181/35
f 109/177/37 116/182/37 118/183/37
f 103/184/38 117/185/38 120/186/38
f 98/168/39 110/169/39 99/187/39
f 103/184/40 119/188/40 104/189/40
f 108/167/41 107/165/41 116/174/41
f 106/164/42 105/162/42 117/190/42
f 101/159/43 104/160/43 119/180/43
f 122/191/33 120/192/33 121/193/33
f 124/194/33 100/195/33 123/196/33
f 126/197/33 115/181/33 125/198/33
f 111/199/33 100/195/33 99/187/33
f 122/191/33 115/181/33 119/180/33
f 124/194/33 120/192/33 117/190/33
f 126/197/33 118/200/33 116/174/33
f 111/199/33 118/200/33 112/201/33
f 128/202/33 130/203/33 113/204/33
f 124/205/44 128/206/44 121/207/44
f 123/208/45 114/173/45 130/209/45
f 124/210/45 130/209/45 129/211/45
f 112/212/46 131/213/46 113/172/46
f 122/214/47 132/215/47 125/216/47
f 125/216/47 131/217/47 126/218/47
f 121/207/48 127/219/48 122/220/48
f 2/1/1 3/221/1 4/2/1
f 6/4/1 7/222/1 8/5/1
f 9/8/1 8/5/1 7/222/1
f 7/222/1 2/1/1 9/8/1
f 2/1/1 1/3/1 10/7/1
f 4/2/1 3/221/1 12/9/1
f 14/11/1 15/14/1 16/12/1
f 14/11/1 17/15/1 15/14/1
f 17/15/1 18/223/1 12/9/1
f 18/223/1 11/10/1 12/9/1
f 20/16/1 21/224/1 22/17/1
f 23/19/1 24/20/1 6/4/1
f 23/19/1 25/21/1 24/20/1
f 25/21/1 26/225/1 22/17/1
f 26/225/1 19/18/1 22/17/1
f 28/22/1 21/224/1 20/16/1
f 16/12/1 29/226/1 30/24/1
f 32/25/1 31/227/1 28/22/1
f 31/227/1 30/24/1 29/226/1
f 28/22/1 31/227/1 29/226/1
f 44/228/1 33/26/1 42/28/1
f 33/26/1 34/229/1 36/230/1
f 34/229/1 35/231/1 36/230/1
f 36/230/1 37/232/1 38/233/1
f 39/27/1 40/234/1 42/28/1
f 40/234/1 41/235/1 42/28/1
f 36/230/1 38/233/1 39/27/1
f 33/26/1 36/230/1 39/27/1
f 42/28/1 43/236/1 44/228/1
f 19/29/2 45/46/2 46/30/2
f 14/32/3 47/42/3 48/33/3
f 28/35/4 40/63/4 39/36/4
f 26/38/5 25/90/5 49/39/5
f 13/41/6 51/85/6 47/42/6
f 8/43/7 9/64/7 52/44/7
f 19/29/5 26/38/5 50/40/5
f 11/47/4 54/237/4 55/48/4
f 16/50/8 42/76/8 41/51/8
f 5/53/8 8/43/8 53/45/8
f 21/37/4 39/36/4 38/55/4
f 17/34/3 48/33/3 57/57/3
f 4/49/4 55/48/4 58/59/4
f 11/61/3 18/58/3 57/57/3
f 28/35/9 29/52/9 41/51/9
f 9/64/7 10/69/7 59/65/7
f 3/66/2 33/74/2 44/67/2
f 1/60/7 58/59/7 59/65/7
f 24/70/6 37/78/6 36/71/6
f 2/73/2 34/238/2 33/74/2
f 16/50/8 15/239/8 43/75/8
f 22/77/49 38/240/49 37/78/49
f 31/79/11 60/93/11 61/80/11
f 6/72/6 36/71/6 35/82/6
f 30/84/6 61/241/6 51/85/6
f 15/86/12 12/68/12 44/67/12
f 20/31/2 46/30/2 62/88/2
f 25/90/5 23/242/5 63/91/5
f 32/92/11 64/98/11 60/93/11
f 5/53/8 56/54/8 63/94/8
f 7/83/13 35/82/13 34/96/13
f 27/89/11 62/88/11 64/98/11
f 52/99/21 65/121/21 66/100/21
f 48/102/23 47/243/23 67/103/23
f 56/105/16 53/101/16 66/100/16
f 49/107/17 63/115/17 70/108/17
f 51/85/18 72/119/18 67/110/18
f 60/111/19 73/134/19 74/112/19
f 55/48/20 75/117/20 76/114/20
f 56/105/16 69/106/16 70/108/16
f 55/48/20 54/237/20 77/116/20
f 51/85/18 61/241/18 74/118/18
f 59/120/14 78/128/14 65/121/14
f 46/30/22 45/46/22 79/122/22
f 57/124/23 48/102/23 68/104/23
f 46/30/22 80/123/22 82/126/22
f 58/127/14 76/142/14 78/128/14
f 50/129/17 49/107/17 71/109/17
f 54/131/23 57/124/23 81/125/23
f 64/133/19 84/138/19 73/134/19
f 45/135/17 50/129/17 83/130/17
f 62/137/19 82/144/19 84/138/19
f 78/128/25 86/143/25 87/140/25
f 84/138/26 88/145/26 89/141/26
f 69/106/27 90/154/27 85/139/27
f 80/146/28 79/136/28 91/147/28
f 83/130/24 71/109/24 85/139/24
f 72/150/30 94/155/30 93/149/30
f 75/151/31 77/132/31 95/152/31
f 81/125/29 68/104/29 93/149/29
f 69/106/27 66/100/27 87/140/27
f 72/150/30 74/112/30 89/141/30
f 75/151/31 96/153/31 86/143/31
f 80/146/28 92/148/28 88/145/28
f 97/156/32 98/244/32 99/157/32
f 101/159/33 102/166/33 90/154/33
f 104/160/33 86/143/33 96/153/33
f 101/159/33 87/140/33 86/143/33
f 105/162/33 93/149/33 94/155/33
f 106/164/33 103/161/33 96/153/33
f 106/164/33 95/152/33 93/149/33
f 107/165/33 85/139/33 90/154/33
f 108/167/33 109/170/33 92/148/33
f 107/165/33 108/167/33 91/147/33
f 98/168/33 97/163/33 94/155/33
f 110/169/33 88/145/33 92/148/33
f 110/169/33 98/168/33 89/141/33
f 111/171/34 112/212/34 113/172/34
f 102/166/35 115/181/35 116/174/35
f 97/156/32 100/158/32 117/175/32
f 109/177/50 118/183/50 99/178/50
f 102/166/35 101/159/35 119/180/35
f 109/177/36 108/245/36 116/182/36
f 103/184/40 106/246/40 117/185/40
f 103/184/51 120/186/51 119/188/51
f 122/191/33 119/180/33 120/192/33
f 124/194/33 117/190/33 100/195/33
f 126/197/33 116/174/33 115/181/33
f 111/199/33 123/196/33 100/195/33
f 122/191/33 125/198/33 115/181/33
f 124/194/33 121/193/33 120/192/33
f 126/197/33 112/201/33 118/200/33
f 111/199/33 99/187/33 118/200/33
f 132/247/33 127/248/33 128/202/33
f 128/202/33 129/249/33 130/203/33
f 130/203/33 114/250/33 113/204/33
f 113/204/33 131/251/33 132/247/33
f 132/247/33 128/202/33 113/204/33
f 124/205/44 129/252/44 128/206/44
f 123/208/45 111/171/45 114/173/45
f 124/210/45 123/208/45 130/209/45
f 112/212/46 126/253/46 131/213/46
f 122/214/47 127/254/47 132/215/47
f 125/216/47 132/215/47 131/217/47
f 121/207/48 128/206/48 127/219/48
