# Blender v2.79 (sub 0) OBJ File: ''
# www.blender.org
v 1.250000 0.000000 -0.000000
v 0.750000 0.000000 -0.000000
v 1.222685 0.259890 -0.000000
v 0.733611 0.155934 -0.000000
v 1.141932 0.508421 -0.000000
v 0.685159 0.305053 -0.000000
v 1.011271 0.734732 -0.000000
v 0.606763 0.440839 -0.000000
v 0.836414 0.928931 -0.000000
v 0.501848 0.557359 -0.000000
v 0.625000 1.082532 -0.000000
v 0.375000 0.649519 -0.000000
v 0.386272 1.188821 -0.000000
v 0.231763 0.713292 -0.000000
v 0.130661 1.243152 -0.000000
v 0.078397 0.745891 -0.000000
v -0.130661 1.243152 -0.000000
v -0.078396 0.745891 -0.000000
v -0.386271 1.188821 -0.000000
v -0.231762 0.713292 -0.000000
v -0.625000 1.082532 -0.000000
v -0.375000 0.649519 -0.000000
v -0.836413 0.928931 -0.000000
v -0.501848 0.557359 -0.000000
v -1.011271 0.734731 -0.000000
v -0.606763 0.440839 -0.000000
v -1.141932 0.508421 -0.000000
v -0.685159 0.305052 -0.000000
v -1.222684 0.259890 -0.000000
v -0.733610 0.155934 -0.000000
v -1.250000 0.000000 -0.000000
v -0.750000 0.000000 -0.000000
v -1.222684 -0.259890 -0.000000
v -0.733610 -0.155934 -0.000000
v -1.141932 -0.508421 -0.000000
v -0.685159 -0.305052 -0.000000
v -1.011271 -0.734731 -0.000000
v -0.606763 -0.440839 -0.000000
v -0.836413 -0.928931 -0.000000
v -0.501848 -0.557359 -0.000000
v -0.625000 -1.082532 -0.000000
v -0.375000 -0.649519 -0.000000
v -0.386271 -1.188821 -0.000000
v -0.231762 -0.713292 -0.000000
v -0.130661 -1.243152 -0.000000
v -0.078396 -0.745891 -0.000000
v 0.130660 -1.243152 -0.000000
v 0.078396 -0.745891 -0.000000
v 0.386272 -1.188821 -0.000000
v 0.231763 -0.713292 -0.000000
v 0.625000 -1.082532 -0.000000
v 0.375000 -0.649519 -0.000000
v 0.836413 -0.928931 -0.000000
v 0.501848 -0.557359 -0.000000
v 1.011271 -0.734732 -0.000000
v 0.606763 -0.440839 -0.000000
v 1.141932 -0.508420 -0.000000
v 0.685159 -0.305052 -0.000000
v 1.222685 -0.259890 -0.000000
v 0.733611 -0.155934 -0.000000
vt 0.956682 0.293934
vt 0.793386 0.434900
vt 0.774009 0.375265
vt 0.257344 0.673562
vt 0.299301 0.720160
vt 0.165501 0.868759
vt 0.225991 0.375264
vt 0.206614 0.434899
vt 0.011024 0.393325
vt 0.043319 0.293933
vt 0.095573 0.203427
vt 0.165502 0.125763
vt 0.299301 0.274362
vt 0.250050 0.064335
vt 0.350030 0.237505
vt 0.345523 0.021828
vt 0.407313 0.212001
vt 0.447747 0.000100
vt 0.468648 0.198964
vt 0.552254 0.000100
vt 0.654478 0.021828
vt 0.531353 0.198964
vt 0.749950 0.064335
vt 0.592687 0.212001
vt 0.834499 0.125763
vt 0.649970 0.237506
vt 0.904428 0.203428
vt 0.742657 0.320961
vt 0.988976 0.393326
vt 0.999900 0.497261
vt 0.799940 0.497261
vt 0.988976 0.601197
vt 0.956682 0.700589
vt 0.793386 0.559623
vt 0.904428 0.791095
vt 0.774009 0.619258
vt 0.834499 0.868760
vt 0.742657 0.673562
vt 0.749950 0.930188
vt 0.649970 0.757017
vt 0.654478 0.972695
vt 0.592687 0.782521
vt 0.552254 0.994423
vt 0.531352 0.795558
vt 0.447746 0.994423
vt 0.468648 0.795558
vt 0.345522 0.972695
vt 0.407314 0.782521
vt 0.257344 0.320960
vt 0.700699 0.720160
vt 0.700699 0.274362
vt 0.350030 0.757017
vt 0.250050 0.930188
vt 0.095572 0.791095
vt 0.043318 0.700589
vt 0.225991 0.619258
vt 0.011024 0.601196
vt 0.206615 0.559622
vt 0.000100 0.497260
vt 0.200060 0.497261
vn 0.0000 0.0000 1.0000
s off
f 51/1/1 54/2/1 52/3/1
f 20/4/1 18/5/1 17/6/1
f 30/7/1 28/8/1 27/9/1
f 27/9/1 29/10/1 30/7/1
f 29/10/1 31/11/1 30/7/1
f 31/11/1 33/12/1 34/13/1
f 33/12/1 35/14/1 36/15/1
f 35/14/1 37/16/1 38/17/1
f 37/16/1 39/18/1 40/19/1
f 39/18/1 41/20/1 40/19/1
f 41/20/1 43/21/1 42/22/1
f 40/19/1 41/20/1 42/22/1
f 43/21/1 45/23/1 44/24/1
f 45/23/1 47/25/1 46/26/1
f 44/24/1 45/23/1 46/26/1
f 47/25/1 49/27/1 50/28/1
f 49/27/1 51/1/1 52/3/1
f 51/1/1 53/29/1 54/2/1
f 53/29/1 55/30/1 56/31/1
f 55/30/1 57/32/1 56/31/1
f 57/32/1 59/33/1 58/34/1
f 56/31/1 57/32/1 58/34/1
f 59/33/1 1/35/1 60/36/1
f 1/35/1 3/37/1 2/38/1
f 60/36/1 1/35/1 2/38/1
f 3/37/1 5/39/1 6/40/1
f 5/39/1 7/41/1 8/42/1
f 7/41/1 9/43/1 10/44/1
f 9/43/1 11/45/1 12/46/1
f 11/45/1 13/47/1 14/48/1
f 11/45/1 14/48/1 12/46/1
f 5/39/1 8/42/1 6/40/1
f 9/43/1 12/46/1 10/44/1
f 49/27/1 52/3/1 50/28/1
f 53/29/1 56/31/1 54/2/1
f 33/12/1 36/15/1 34/13/1
f 37/16/1 40/19/1 38/17/1
f 32/49/1 30/7/1 31/11/1
f 7/41/1 10/44/1 8/42/1
f 34/13/1 32/49/1 31/11/1
f 38/17/1 36/15/1 35/14/1
f 3/37/1 6/40/1 4/50/1
f 3/37/1 4/50/1 2/38/1
f 42/22/1 43/21/1 44/24/1
f 60/36/1 58/34/1 59/33/1
f 48/51/1 46/26/1 47/25/1
f 50/28/1 48/51/1 47/25/1
f 16/52/1 14/48/1 13/47/1
f 13/47/1 15/53/1 16/52/1
f 15/53/1 17/6/1 16/52/1
f 17/6/1 19/54/1 20/4/1
f 19/54/1 21/55/1 22/56/1
f 21/55/1 23/57/1 24/58/1
f 23/57/1 25/59/1 26/60/1
f 25/59/1 27/9/1 28/8/1
f 25/59/1 28/8/1 26/60/1
f 19/54/1 22/56/1 20/4/1
f 23/57/1 26/60/1 24/58/1
f 18/5/1 16/52/1 17/6/1
f 21/55/1 24/58/1 22/56/1
